<svg id="svg" version="1.1" xmlns="http://www.w3.org/2000/svg" xmlns:xlink="http://www.w3.org/1999/xlink" width="400" height="95.0413223140496" viewBox="0, 0, 400,95.0413223140496"><g id="svgg"><path id="path0" d="M134.631 29.947 C 133.448 30.258,132.588 32.074,132.955 33.483 C 133.795 36.703,138.667 36.017,138.667 32.678 C 138.667 30.798,136.632 29.421,134.631 29.947 M166.831 29.961 C 163.935 31.363,164.718 35.510,167.875 35.494 C 170.903 35.479,171.985 32.273,169.615 30.339 C 169.094 29.915,167.402 29.685,166.831 29.961 M308.367 31.700 C 308.077 31.990,308.077 59.677,308.367 59.967 C 308.619 60.219,312.215 60.242,312.678 59.994 C 312.992 59.826,313.000 59.492,313.000 45.823 L 313.000 31.825 312.572 31.663 C 311.946 31.424,308.613 31.454,308.367 31.700 M103.588 33.325 C 103.535 33.412,103.643 33.767,103.829 34.114 C 104.015 34.461,104.167 34.838,104.167 34.953 C 104.167 35.067,104.345 35.630,104.563 36.205 C 104.781 36.780,105.052 37.512,105.165 37.833 C 105.278 38.154,105.559 38.904,105.790 39.500 C 106.394 41.058,107.136 43.106,107.481 44.167 C 107.645 44.671,107.904 45.323,108.056 45.617 C 108.209 45.910,108.334 46.285,108.334 46.450 C 108.335 46.615,108.457 46.975,108.605 47.250 C 108.753 47.525,109.011 48.163,109.179 48.667 C 109.855 50.700,110.185 51.603,110.397 52.000 C 110.519 52.229,110.702 52.754,110.804 53.167 C 110.905 53.579,111.141 54.214,111.327 54.577 C 111.514 54.940,111.667 55.381,111.667 55.557 C 111.667 55.733,111.809 56.111,111.982 56.397 C 112.155 56.683,112.350 57.179,112.415 57.500 C 112.516 58.000,112.865 58.891,113.329 59.833 C 113.429 60.035,113.929 60.093,115.935 60.133 C 119.392 60.201,119.422 60.193,119.673 59.120 C 119.785 58.642,119.978 58.063,120.101 57.833 C 120.311 57.445,120.670 56.477,121.276 54.667 C 121.414 54.254,121.662 53.617,121.827 53.250 C 121.992 52.883,122.180 52.358,122.243 52.083 C 122.307 51.808,122.462 51.358,122.587 51.083 C 122.824 50.566,123.278 49.309,123.848 47.595 C 124.028 47.051,124.242 46.526,124.322 46.428 C 124.402 46.330,124.556 45.913,124.665 45.500 C 124.774 45.087,124.965 44.525,125.090 44.250 C 125.337 43.703,125.841 42.293,126.329 40.782 C 126.501 40.250,126.717 39.724,126.809 39.613 C 126.900 39.503,127.069 39.038,127.184 38.581 C 127.298 38.124,127.528 37.525,127.695 37.250 C 127.862 36.975,127.999 36.600,128.000 36.417 C 128.001 36.233,128.123 35.858,128.271 35.583 C 128.733 34.722,129.020 33.450,128.786 33.298 C 128.674 33.226,127.579 33.185,126.352 33.208 L 124.120 33.250 123.907 34.000 C 123.790 34.412,123.459 35.387,123.172 36.167 C 122.884 36.946,122.534 37.996,122.393 38.500 C 122.251 39.004,122.071 39.496,121.991 39.593 C 121.911 39.690,121.737 40.188,121.604 40.699 C 121.470 41.210,121.253 41.844,121.120 42.106 C 120.987 42.369,120.785 42.977,120.672 43.459 C 120.559 43.940,120.407 44.371,120.333 44.417 C 120.260 44.462,120.109 44.893,119.998 45.374 C 119.887 45.856,119.696 46.409,119.575 46.604 C 119.453 46.798,119.230 47.436,119.078 48.020 C 118.927 48.605,118.742 49.158,118.667 49.250 C 118.591 49.342,118.406 49.895,118.255 50.480 C 118.104 51.064,117.880 51.702,117.759 51.896 C 117.637 52.091,117.445 52.650,117.332 53.138 C 117.206 53.685,117.023 54.057,116.855 54.108 C 116.706 54.154,116.449 54.263,116.285 54.351 C 116.031 54.487,115.935 54.391,115.649 53.714 C 115.464 53.275,115.241 52.767,115.154 52.583 C 115.067 52.400,114.889 51.875,114.759 51.417 C 114.369 50.051,113.824 48.451,113.566 47.916 C 113.433 47.640,113.218 47.040,113.087 46.582 C 112.957 46.125,112.617 45.112,112.332 44.333 C 112.047 43.554,111.660 42.429,111.472 41.833 C 111.285 41.237,111.075 40.675,111.006 40.583 C 110.938 40.492,110.790 40.042,110.678 39.583 C 110.567 39.125,110.372 38.525,110.246 38.250 C 109.948 37.598,109.403 36.024,109.007 34.674 C 108.834 34.082,108.560 33.501,108.398 33.382 C 108.046 33.125,103.744 33.074,103.588 33.325 M225.758 33.321 C 225.632 33.524,225.804 34.278,226.102 34.833 C 226.325 35.249,226.736 36.381,227.329 38.218 C 227.501 38.750,227.717 39.276,227.809 39.387 C 227.900 39.497,228.068 39.962,228.181 40.419 C 228.294 40.876,228.524 41.511,228.693 41.831 C 228.862 42.150,229.000 42.528,229.000 42.671 C 229.000 42.813,229.140 43.205,229.312 43.541 C 229.483 43.877,229.706 44.474,229.806 44.868 C 229.906 45.261,230.141 45.880,230.327 46.244 C 230.514 46.607,230.667 47.031,230.667 47.185 C 230.667 47.340,230.853 47.868,231.082 48.358 C 231.310 48.849,231.497 49.390,231.498 49.561 C 231.499 49.731,231.643 50.144,231.818 50.477 C 231.994 50.811,232.256 51.440,232.402 51.875 C 232.547 52.310,232.785 53.023,232.930 53.458 C 233.075 53.894,233.332 54.550,233.500 54.917 C 233.668 55.283,233.894 55.921,234.003 56.333 C 234.111 56.746,234.257 57.158,234.328 57.250 C 234.399 57.342,234.546 57.717,234.656 58.083 C 235.307 60.262,235.177 60.196,238.653 60.131 L 241.222 60.083 241.494 59.583 C 241.644 59.308,241.864 58.746,241.982 58.333 C 242.101 57.921,242.302 57.358,242.429 57.083 C 242.662 56.580,243.077 55.425,243.683 53.595 C 243.862 53.051,244.077 52.525,244.159 52.426 C 244.241 52.327,244.401 51.872,244.514 51.414 C 244.627 50.957,244.858 50.322,245.027 50.002 C 245.195 49.683,245.333 49.305,245.333 49.163 C 245.333 49.020,245.486 48.607,245.673 48.244 C 245.859 47.880,246.096 47.246,246.199 46.833 C 246.302 46.421,246.524 45.822,246.693 45.502 C 246.862 45.183,247.000 44.805,247.000 44.663 C 247.000 44.520,247.146 44.118,247.324 43.769 C 247.502 43.420,247.696 42.898,247.755 42.609 C 247.814 42.320,247.997 41.783,248.161 41.417 C 248.325 41.050,248.575 40.412,248.716 40.000 C 248.858 39.587,249.195 38.650,249.465 37.917 C 249.736 37.183,250.086 36.208,250.243 35.750 C 250.400 35.292,250.643 34.689,250.783 34.410 C 251.320 33.343,251.169 33.255,248.711 33.204 L 246.510 33.157 246.091 33.822 C 245.860 34.187,245.598 34.812,245.509 35.210 C 245.420 35.608,245.195 36.267,245.010 36.675 C 244.825 37.083,244.672 37.558,244.670 37.732 C 244.668 37.905,244.524 38.355,244.349 38.732 C 244.019 39.442,243.488 40.975,243.072 42.417 C 242.939 42.875,242.723 43.478,242.591 43.758 C 242.458 44.037,242.270 44.623,242.172 45.060 C 242.074 45.497,241.892 46.018,241.768 46.219 C 241.643 46.419,241.452 46.957,241.342 47.414 C 241.232 47.872,241.079 48.322,241.003 48.414 C 240.926 48.507,240.737 49.071,240.583 49.667 C 240.429 50.262,240.242 50.825,240.168 50.917 C 240.093 51.008,239.901 51.533,239.742 52.083 C 239.464 53.041,238.856 54.196,238.520 54.404 C 238.238 54.579,237.373 53.326,237.107 52.356 C 236.723 50.963,236.175 49.338,235.834 48.583 C 235.668 48.217,235.479 47.654,235.413 47.333 C 235.347 47.012,235.163 46.487,235.004 46.167 C 234.845 45.846,234.667 45.334,234.609 45.028 C 234.551 44.723,234.394 44.236,234.260 43.945 C 233.969 43.312,233.427 41.789,233.003 40.417 C 232.585 39.062,232.186 37.930,231.742 36.833 C 231.538 36.329,231.320 35.654,231.259 35.333 C 231.197 35.012,230.982 34.412,230.780 34.000 L 230.413 33.250 228.136 33.204 C 226.773 33.176,225.818 33.223,225.758 33.321 M320.052 33.542 C 319.977 33.656,319.878 34.779,319.831 36.036 C 319.734 38.625,319.725 38.642,318.476 38.812 C 317.154 38.991,317.167 38.972,317.167 40.823 C 317.167 42.702,317.201 42.756,318.453 42.871 C 319.925 43.005,319.833 42.562,319.833 49.561 L 319.833 55.747 320.412 56.917 C 321.070 58.251,322.104 59.234,323.110 59.484 C 323.462 59.572,324.050 59.758,324.417 59.898 C 325.091 60.155,328.353 60.277,328.903 60.066 C 329.120 59.982,329.167 59.659,329.167 58.242 C 329.167 56.183,329.029 56.000,327.484 56.000 C 326.490 56.000,325.225 55.554,324.814 55.060 C 324.437 54.607,324.381 43.476,324.754 43.103 C 324.969 42.888,325.388 42.833,326.832 42.833 C 329.315 42.833,329.167 42.956,329.167 40.905 C 329.167 38.799,329.207 38.833,326.770 38.833 C 324.488 38.833,324.500 38.848,324.500 36.046 C 324.500 33.328,324.505 33.333,322.010 33.333 C 320.734 33.333,320.146 33.396,320.052 33.542 M150.890 38.500 C 150.692 38.579,149.942 38.726,149.223 38.825 C 148.466 38.929,147.740 39.134,147.497 39.312 C 147.266 39.481,146.925 39.668,146.739 39.727 C 146.277 39.874,144.843 41.285,144.336 42.091 C 143.968 42.676,143.916 42.965,143.868 44.667 L 143.815 46.583 144.376 47.445 C 144.954 48.333,146.203 49.500,146.577 49.500 C 146.693 49.500,146.971 49.644,147.195 49.820 C 147.418 49.995,147.897 50.192,148.259 50.258 C 148.621 50.323,149.346 50.554,149.870 50.771 C 150.394 50.989,151.064 51.167,151.359 51.167 C 151.654 51.167,152.200 51.311,152.572 51.488 C 152.945 51.665,153.555 51.889,153.929 51.987 C 157.309 52.868,156.167 56.504,152.511 56.499 C 150.295 56.496,149.250 56.029,148.284 54.611 C 147.651 53.682,147.625 53.672,145.896 53.669 C 143.080 53.664,142.950 53.791,143.813 55.693 C 144.247 56.649,145.743 58.500,146.082 58.500 C 146.157 58.500,146.459 58.683,146.753 58.908 C 147.047 59.132,147.504 59.367,147.769 59.430 C 148.033 59.493,148.377 59.655,148.532 59.790 C 149.334 60.486,154.656 60.449,156.039 59.739 C 156.472 59.516,156.929 59.333,157.054 59.333 C 157.451 59.333,159.139 57.761,159.601 56.961 C 160.170 55.975,160.237 55.673,160.243 54.083 C 160.250 52.535,160.215 52.357,159.762 51.583 C 159.058 50.381,157.226 48.833,156.507 48.833 C 156.358 48.833,155.940 48.681,155.577 48.495 C 155.214 48.309,154.456 48.090,153.892 48.010 C 153.328 47.929,152.691 47.748,152.475 47.607 C 152.260 47.466,151.746 47.297,151.333 47.233 C 149.779 46.990,148.167 45.675,148.167 44.651 C 148.167 41.615,154.690 41.493,155.504 44.513 C 155.701 45.246,155.986 45.333,158.174 45.333 C 159.909 45.333,160.167 45.257,160.167 44.743 C 160.167 43.879,159.053 41.593,158.250 40.810 C 157.621 40.197,157.416 40.043,156.833 39.752 C 156.512 39.591,156.137 39.361,155.998 39.240 C 155.860 39.119,155.127 38.943,154.370 38.848 C 153.613 38.753,152.850 38.598,152.675 38.504 C 152.293 38.300,151.391 38.298,150.890 38.500 M185.083 38.469 C 184.992 38.556,184.301 38.715,183.549 38.822 C 181.019 39.181,177.848 41.312,176.914 43.279 C 176.773 43.576,176.587 43.863,176.500 43.917 C 176.413 43.970,176.231 44.367,176.096 44.799 C 175.960 45.230,175.737 45.883,175.599 46.250 C 174.835 48.281,175.381 52.987,176.635 55.167 C 177.477 56.632,179.328 58.667,179.818 58.667 C 179.890 58.667,180.122 58.817,180.333 59.000 C 180.545 59.183,180.830 59.333,180.968 59.333 C 181.105 59.333,181.638 59.536,182.151 59.783 C 183.432 60.401,188.375 60.471,189.349 59.884 C 189.661 59.697,190.142 59.490,190.417 59.425 C 191.175 59.247,192.632 58.225,193.775 57.068 C 194.952 55.877,195.291 55.328,196.183 53.167 C 196.820 51.625,196.812 46.408,196.173 45.583 C 196.102 45.492,195.949 45.117,195.834 44.750 C 195.719 44.383,195.531 43.971,195.416 43.833 C 195.301 43.696,195.091 43.358,194.950 43.083 C 194.439 42.087,192.132 40.056,191.164 39.750 C 190.936 39.678,190.567 39.498,190.344 39.351 C 189.651 38.894,185.388 38.179,185.083 38.469 M262.500 38.594 C 262.179 38.715,261.654 38.819,261.333 38.824 C 260.116 38.843,256.167 41.515,256.167 42.320 C 256.167 42.406,256.068 42.575,255.948 42.696 C 255.250 43.399,254.389 46.106,254.074 48.584 C 253.925 49.759,254.575 53.510,255.099 54.494 C 255.319 54.908,255.500 55.301,255.500 55.366 C 255.500 55.840,257.940 58.572,258.531 58.760 C 258.697 58.813,258.833 58.920,258.833 58.998 C 258.833 59.077,259.115 59.231,259.458 59.341 C 259.802 59.452,260.210 59.653,260.365 59.788 C 261.088 60.418,266.068 60.425,266.796 59.796 C 266.954 59.659,267.340 59.461,267.654 59.355 C 267.968 59.250,268.343 59.055,268.487 58.923 C 268.632 58.790,268.937 58.510,269.165 58.299 C 269.573 57.924,270.625 57.167,270.740 57.167 C 270.903 57.167,271.071 57.873,271.156 58.917 L 271.250 60.083 273.583 60.083 L 275.917 60.083 275.960 49.685 C 275.991 42.144,275.951 39.225,275.814 39.060 C 275.673 38.890,275.090 38.833,273.497 38.833 C 271.101 38.833,271.167 38.796,271.167 40.148 C 271.167 41.747,270.754 41.793,269.026 40.390 C 268.537 39.992,268.061 39.667,267.969 39.667 C 267.878 39.667,267.617 39.520,267.390 39.342 C 267.162 39.163,266.626 38.970,266.197 38.913 C 265.768 38.855,265.085 38.702,264.679 38.571 C 263.805 38.290,263.290 38.295,262.500 38.594 M211.065 38.833 C 210.263 38.951,209.478 39.349,207.673 40.554 C 206.792 41.142,206.333 40.885,206.333 39.803 C 206.333 39.264,206.263 39.132,205.906 38.996 C 205.394 38.801,202.172 38.782,201.874 38.972 C 201.708 39.077,201.673 41.313,201.707 49.594 L 201.750 60.083 203.500 60.133 C 204.463 60.161,205.494 60.139,205.792 60.084 L 206.333 59.985 206.337 53.367 C 206.342 45.098,206.407 44.813,208.621 43.341 L 209.417 42.812 211.583 42.864 L 213.750 42.917 214.579 43.511 C 215.097 43.882,215.628 44.475,215.995 45.094 L 216.583 46.083 216.667 53.083 L 216.750 60.083 219.000 60.083 L 221.250 60.083 221.295 52.917 C 221.340 45.655,221.314 45.253,220.682 43.446 C 220.202 42.074,218.156 39.667,217.470 39.667 C 217.387 39.667,217.117 39.522,216.868 39.345 C 216.067 38.774,213.196 38.521,211.065 38.833 M133.708 39.005 L 133.333 39.156 133.333 49.575 L 133.333 59.994 133.708 60.087 C 133.915 60.138,134.946 60.158,136.000 60.132 L 137.917 60.083 137.960 49.685 C 137.991 42.144,137.951 39.225,137.814 39.060 C 137.595 38.796,134.337 38.752,133.708 39.005 M165.875 39.003 L 165.500 39.156 165.500 49.489 C 165.500 61.578,165.161 60.201,168.124 60.130 L 170.083 60.083 170.083 49.500 L 170.083 38.917 168.167 38.883 C 167.112 38.864,166.081 38.918,165.875 39.003 M282.009 39.072 C 281.860 39.252,281.827 41.096,281.874 46.447 L 281.937 53.583 282.442 54.917 C 283.249 57.046,284.813 58.912,286.167 59.359 C 286.487 59.465,287.027 59.695,287.366 59.871 C 288.461 60.440,291.840 60.326,293.237 59.673 C 293.832 59.394,294.360 59.167,294.410 59.167 C 294.521 59.167,295.018 58.742,295.675 58.084 C 296.438 57.320,297.062 57.711,297.135 59.002 C 297.163 59.501,297.276 59.966,297.385 60.035 C 297.723 60.250,301.409 60.191,301.633 59.967 C 301.785 59.815,301.833 57.257,301.833 49.473 C 301.833 37.503,302.125 38.833,299.500 38.833 C 296.927 38.833,297.167 38.228,297.167 44.734 C 297.167 52.022,296.938 53.422,295.514 54.848 C 293.702 56.662,289.693 56.595,287.986 54.722 C 286.634 53.239,286.512 52.424,286.505 44.811 L 286.500 39.039 286.125 38.938 C 285.319 38.722,282.216 38.823,282.009 39.072 M188.602 43.351 C 189.916 44.044,190.502 44.633,191.181 45.945 L 191.750 47.045 191.749 49.481 L 191.748 51.917 191.169 52.914 C 190.459 54.138,189.318 55.258,188.517 55.519 C 188.187 55.626,187.769 55.816,187.588 55.940 C 187.050 56.311,184.638 56.241,183.877 55.833 C 183.535 55.650,183.157 55.500,183.037 55.500 C 182.917 55.500,182.447 55.152,181.991 54.726 C 178.979 51.908,179.400 45.440,182.715 43.615 C 183.080 43.414,183.537 43.157,183.731 43.044 C 184.516 42.585,187.506 42.774,188.602 43.351 M267.568 43.292 C 267.830 43.498,268.135 43.667,268.245 43.667 C 268.625 43.667,270.025 45.226,270.552 46.236 C 272.134 49.272,270.443 54.844,267.762 55.432 C 267.481 55.494,266.989 55.684,266.669 55.856 C 265.876 56.280,264.152 56.269,263.250 55.833 C 262.883 55.656,262.496 55.509,262.390 55.506 C 262.284 55.503,261.824 55.205,261.368 54.845 C 257.599 51.866,258.175 45.542,262.417 43.328 C 263.729 42.643,266.717 42.622,267.568 43.292 " stroke="none" fill="#181820" fill-rule="evenodd"></path><path id="path1" d="M0.000 47.500 L 0.000 95.000 200.000 95.000 L 400.000 95.000 400.000 47.500 L 400.000 0.000 200.000 0.000 L 0.000 0.000 0.000 47.500 M137.380 29.730 C 138.673 30.285,139.083 31.012,139.083 32.751 L 139.083 34.317 138.458 34.958 C 135.908 37.570,131.240 35.274,132.159 31.860 C 132.654 30.024,135.428 28.892,137.380 29.730 M170.276 30.161 C 173.205 32.704,170.578 37.027,166.824 35.842 C 164.869 35.225,164.203 34.242,164.370 32.222 C 164.567 29.849,168.383 28.517,170.276 30.161 M313.238 31.429 C 313.650 31.840,313.636 59.840,313.224 60.253 C 312.858 60.618,308.060 60.563,307.609 60.188 C 307.244 59.885,307.178 31.833,307.542 31.538 C 308.093 31.091,312.809 31.000,313.238 31.429 M52.606 32.929 C 53.962 33.072,54.036 33.181,54.129 35.182 C 54.240 37.578,54.663 38.277,55.591 37.598 C 55.864 37.398,55.926 37.089,55.998 35.556 C 56.134 32.677,55.847 32.790,62.971 32.812 C 68.845 32.830,69.579 32.915,69.845 33.613 C 69.935 33.850,70.082 36.490,70.171 39.480 C 70.385 46.615,70.414 46.908,70.952 47.332 C 71.364 47.655,71.618 47.667,78.513 47.667 L 85.648 47.667 86.090 48.047 C 86.472 48.375,86.543 48.587,86.606 49.589 C 86.788 52.490,87.024 55.347,87.169 56.417 C 87.256 57.058,87.443 59.346,87.586 61.500 C 87.728 63.654,87.958 66.354,88.097 67.500 C 88.529 71.076,88.605 74.371,88.263 74.714 C 87.994 74.982,86.121 75.000,58.146 75.000 L 28.316 75.000 28.076 74.424 C 27.800 73.765,27.965 67.956,28.406 62.750 C 28.538 61.192,28.691 58.604,28.747 57.000 C 28.905 52.463,29.155 47.768,29.350 45.677 C 29.448 44.628,29.621 41.486,29.735 38.694 C 29.993 32.348,29.689 32.706,34.688 32.862 C 37.442 32.948,37.327 32.823,37.353 35.740 C 37.393 40.218,37.518 41.242,38.031 41.302 C 38.841 41.395,38.989 40.899,39.091 37.738 C 39.252 32.769,39.109 32.992,42.224 32.845 C 44.519 32.737,51.310 32.792,52.606 32.929 M109.016 33.103 C 109.279 33.420,109.578 34.183,110.009 35.643 C 110.181 36.226,110.393 36.788,110.479 36.893 C 110.565 36.998,110.753 37.496,110.895 38.000 C 111.308 39.459,111.839 41.028,112.166 41.750 C 112.332 42.117,112.521 42.679,112.587 43.000 C 112.653 43.321,112.838 43.846,112.998 44.167 C 113.158 44.487,113.342 45.047,113.408 45.409 C 113.474 45.771,113.662 46.334,113.827 46.659 C 113.991 46.984,114.182 47.512,114.250 47.833 C 114.318 48.154,114.506 48.679,114.667 49.000 C 114.828 49.321,115.013 49.846,115.078 50.167 C 115.143 50.487,115.334 51.050,115.504 51.417 C 115.673 51.783,115.862 52.365,115.924 52.708 C 116.132 53.860,116.841 53.007,117.344 51.000 C 117.448 50.587,117.594 50.175,117.668 50.083 C 117.743 49.992,117.929 49.429,118.083 48.833 C 118.237 48.237,118.424 47.675,118.499 47.583 C 118.573 47.492,118.723 47.079,118.832 46.667 C 118.941 46.254,119.135 45.692,119.264 45.417 C 119.393 45.142,119.606 44.542,119.739 44.083 C 120.041 43.036,120.785 40.858,120.990 40.417 C 121.075 40.233,121.257 39.708,121.393 39.250 C 121.715 38.169,122.140 36.939,122.516 36.000 C 122.681 35.587,122.935 34.820,123.079 34.294 C 123.452 32.935,123.705 32.833,126.723 32.833 C 129.642 32.833,130.076 33.010,129.614 34.011 C 129.354 34.578,128.874 35.883,128.393 37.333 C 128.257 37.746,128.038 38.308,127.907 38.583 C 127.681 39.058,127.275 40.171,126.723 41.833 C 126.586 42.246,126.332 42.921,126.159 43.333 C 125.985 43.746,125.765 44.383,125.669 44.750 C 125.573 45.117,125.383 45.562,125.247 45.740 C 125.111 45.918,124.999 46.218,124.998 46.407 C 124.997 46.596,124.810 47.151,124.582 47.642 C 124.353 48.132,124.167 48.658,124.167 48.811 C 124.167 48.963,124.019 49.364,123.838 49.701 C 123.657 50.038,123.422 50.675,123.315 51.115 C 123.207 51.556,123.026 52.029,122.912 52.167 C 122.797 52.304,122.649 52.679,122.581 53.000 C 122.514 53.321,122.326 53.883,122.164 54.250 C 122.002 54.617,121.741 55.292,121.585 55.750 C 120.731 58.247,120.474 58.926,120.328 59.072 C 120.239 59.161,120.167 59.368,120.167 59.533 C 120.167 60.380,119.712 60.500,116.511 60.500 C 113.332 60.500,112.747 60.397,112.520 59.795 C 112.441 59.587,112.210 59.004,112.006 58.500 C 111.802 57.996,111.563 57.283,111.475 56.917 C 111.387 56.550,111.217 56.100,111.098 55.917 C 110.979 55.733,110.763 55.208,110.618 54.750 C 110.473 54.292,110.119 53.279,109.830 52.500 C 109.542 51.721,109.194 50.746,109.056 50.333 C 108.919 49.921,108.662 49.275,108.486 48.898 C 108.311 48.522,108.167 48.119,108.167 48.003 C 108.167 47.887,107.986 47.370,107.765 46.854 C 107.545 46.339,107.251 45.579,107.113 45.167 C 106.455 43.208,106.272 42.702,105.994 42.083 C 105.830 41.717,105.643 41.160,105.579 40.847 C 105.514 40.534,105.320 40.047,105.148 39.764 C 104.976 39.481,104.834 39.099,104.834 38.914 C 104.834 38.730,104.685 38.303,104.505 37.965 C 104.324 37.628,104.088 36.992,103.981 36.551 C 103.873 36.111,103.715 35.661,103.630 35.551 C 103.116 34.893,102.857 33.336,103.219 33.082 C 103.761 32.703,108.698 32.720,109.016 33.103 M230.910 33.027 C 231.205 33.162,231.388 33.430,231.509 33.902 C 231.605 34.277,231.821 34.921,231.990 35.333 C 232.159 35.746,232.350 36.346,232.415 36.667 C 232.480 36.987,232.633 37.408,232.755 37.602 C 232.878 37.796,233.092 38.358,233.233 38.852 C 233.650 40.322,234.176 41.883,234.434 42.418 C 234.567 42.693,234.783 43.293,234.915 43.751 C 235.298 45.079,235.853 46.695,236.174 47.417 C 236.337 47.783,236.524 48.346,236.589 48.667 C 236.654 48.987,236.838 49.512,236.998 49.833 C 237.158 50.154,237.343 50.717,237.409 51.083 C 237.475 51.450,237.591 51.825,237.666 51.917 C 237.740 52.008,237.936 52.495,238.100 52.998 L 238.398 53.913 238.684 52.950 C 238.841 52.421,239.042 51.897,239.130 51.785 C 239.218 51.674,239.383 51.171,239.497 50.667 C 239.611 50.163,239.797 49.600,239.910 49.417 C 240.023 49.233,240.211 48.671,240.327 48.167 C 240.443 47.663,240.639 47.088,240.762 46.890 C 240.886 46.693,241.075 46.168,241.181 45.724 C 241.288 45.280,241.466 44.767,241.577 44.583 C 241.688 44.400,241.872 43.875,241.985 43.417 C 242.099 42.958,242.298 42.358,242.428 42.083 C 242.558 41.808,242.772 41.208,242.902 40.750 C 243.033 40.292,243.377 39.279,243.665 38.500 C 243.954 37.721,244.321 36.633,244.481 36.083 C 244.642 35.533,244.860 34.933,244.967 34.750 C 245.074 34.567,245.223 34.154,245.299 33.833 C 245.508 32.954,245.898 32.839,248.676 32.836 C 251.811 32.833,251.824 32.840,251.423 34.475 C 251.262 35.132,251.068 35.708,250.993 35.755 C 250.917 35.801,250.731 36.269,250.579 36.795 C 250.426 37.320,250.241 37.825,250.167 37.917 C 250.093 38.008,249.946 38.421,249.841 38.833 C 249.735 39.246,249.507 39.883,249.333 40.250 C 249.160 40.617,248.895 41.292,248.745 41.750 C 248.417 42.754,247.849 44.335,247.247 45.917 C 247.003 46.558,246.692 47.421,246.555 47.833 C 246.418 48.246,246.170 48.883,246.003 49.250 C 245.836 49.617,245.644 50.179,245.577 50.500 C 245.510 50.821,245.316 51.345,245.144 51.664 C 244.973 51.984,244.833 52.359,244.832 52.498 C 244.831 52.636,244.646 53.125,244.420 53.583 C 244.195 54.042,244.007 54.567,244.004 54.750 C 244.000 54.933,243.812 55.458,243.587 55.917 C 243.362 56.375,243.175 56.865,243.172 57.006 C 243.169 57.147,243.024 57.543,242.849 57.886 C 242.674 58.229,242.440 58.888,242.329 59.350 C 242.056 60.491,241.892 60.535,238.150 60.470 C 234.942 60.415,234.500 60.320,234.500 59.685 C 234.500 59.535,234.362 59.150,234.193 58.831 C 234.024 58.511,233.797 57.887,233.687 57.443 C 233.577 56.999,233.385 56.474,233.260 56.276 C 233.135 56.078,232.980 55.654,232.917 55.333 C 232.853 55.012,232.698 54.588,232.573 54.390 C 232.448 54.193,232.254 53.668,232.143 53.224 C 232.031 52.780,231.810 52.192,231.653 51.917 C 231.495 51.642,231.314 51.154,231.250 50.833 C 231.186 50.512,231.032 50.088,230.907 49.890 C 230.782 49.693,230.591 49.168,230.482 48.724 C 230.374 48.280,230.222 47.835,230.144 47.735 C 230.013 47.566,229.607 46.464,228.921 44.417 C 228.768 43.958,228.560 43.433,228.460 43.250 C 228.360 43.067,228.145 42.504,227.982 42.000 C 227.818 41.496,227.450 40.446,227.162 39.667 C 226.875 38.887,226.528 37.912,226.392 37.500 C 226.255 37.087,225.999 36.429,225.822 36.037 C 225.645 35.645,225.500 35.230,225.500 35.114 C 225.500 34.998,225.349 34.607,225.164 34.245 C 224.783 33.498,224.829 33.224,225.371 33.007 C 225.937 32.779,230.402 32.796,230.910 33.027 M324.800 33.200 C 324.933 33.333,325.001 34.071,325.002 35.408 C 325.006 38.493,325.012 38.500,327.748 38.500 C 329.951 38.500,330.000 38.551,330.000 40.833 C 330.000 43.149,329.982 43.166,327.532 43.169 C 324.829 43.173,325.092 42.587,325.035 48.739 C 324.973 55.506,324.859 55.245,327.964 55.449 L 329.539 55.553 329.770 56.104 C 330.207 57.151,330.083 59.938,329.585 60.264 C 328.927 60.696,324.373 60.537,323.328 60.046 C 322.912 59.851,322.367 59.640,322.117 59.577 C 321.345 59.383,320.013 57.881,319.536 56.667 C 319.115 55.596,319.109 55.513,319.003 49.417 C 318.944 46.025,318.881 43.231,318.864 43.208 C 318.847 43.185,318.421 43.167,317.917 43.167 C 316.514 43.167,316.333 42.905,316.333 40.870 C 316.333 38.774,316.478 38.536,317.789 38.467 C 318.957 38.405,318.960 38.396,318.983 35.467 C 318.998 33.637,319.040 33.327,319.292 33.180 C 319.720 32.931,324.548 32.948,324.800 33.200 M153.161 38.011 C 153.754 38.107,154.316 38.245,154.411 38.318 C 154.506 38.391,155.002 38.531,155.513 38.631 C 156.816 38.883,159.667 40.922,159.667 41.601 C 159.667 41.704,159.820 41.983,160.007 42.221 C 160.194 42.459,160.453 43.201,160.581 43.869 C 160.901 45.537,160.864 45.568,158.374 45.640 C 155.817 45.715,155.391 45.578,154.750 44.476 C 153.895 43.005,152.174 42.471,150.130 43.044 C 148.692 43.446,148.626 46.167,150.053 46.167 C 150.183 46.167,150.470 46.310,150.692 46.485 C 150.915 46.659,151.469 46.857,151.923 46.923 C 152.378 46.989,153.012 47.174,153.333 47.333 C 153.654 47.493,154.292 47.676,154.750 47.741 C 155.208 47.806,155.813 47.992,156.093 48.155 C 156.373 48.318,156.877 48.502,157.213 48.565 C 157.549 48.628,157.920 48.809,158.037 48.968 C 158.154 49.126,158.446 49.342,158.686 49.447 C 160.465 50.231,161.721 54.131,160.769 55.917 C 160.622 56.192,160.501 56.529,160.501 56.667 C 160.500 56.804,160.275 57.179,160.000 57.500 C 159.725 57.821,159.501 58.133,159.500 58.193 C 159.500 58.392,157.933 59.427,156.750 60.009 L 155.583 60.583 152.333 60.583 C 149.159 60.583,149.062 60.573,148.167 60.141 C 147.662 59.898,147.006 59.608,146.708 59.496 C 146.410 59.384,146.167 59.236,146.167 59.167 C 146.167 59.097,145.939 58.946,145.660 58.831 C 145.184 58.633,144.237 57.618,143.363 56.368 C 142.757 55.501,142.522 54.103,142.910 53.674 C 143.193 53.361,143.412 53.333,145.622 53.333 L 148.026 53.333 148.513 53.821 C 148.781 54.088,149.000 54.413,149.000 54.543 C 149.000 55.313,150.352 55.915,152.217 55.973 L 154.017 56.030 154.590 55.473 C 155.157 54.923,155.478 53.167,155.013 53.167 C 154.928 53.167,154.639 52.982,154.371 52.756 C 154.103 52.531,153.516 52.264,153.067 52.164 C 152.618 52.064,152.090 51.877,151.893 51.749 C 151.697 51.621,151.135 51.465,150.643 51.403 C 150.152 51.341,149.321 51.112,148.797 50.895 C 148.272 50.678,147.727 50.500,147.585 50.500 C 147.092 50.500,145.473 49.509,144.614 48.681 C 141.870 46.038,142.672 41.397,146.209 39.452 C 146.577 39.249,147.037 38.991,147.231 38.877 C 147.425 38.764,147.749 38.670,147.953 38.669 C 148.156 38.668,148.681 38.544,149.119 38.395 C 149.811 38.159,151.016 37.919,151.833 37.855 C 151.971 37.845,152.568 37.915,153.161 38.011 M188.333 38.260 C 188.654 38.381,189.342 38.563,189.862 38.666 C 190.382 38.768,190.894 38.955,190.999 39.082 C 191.104 39.208,191.413 39.361,191.686 39.421 C 191.958 39.481,192.370 39.692,192.601 39.890 C 192.832 40.088,193.250 40.438,193.531 40.667 C 194.317 41.308,195.157 42.218,195.262 42.542 C 195.313 42.702,195.420 42.833,195.498 42.833 C 196.457 42.833,197.887 49.411,197.334 51.277 C 197.230 51.629,197.042 52.367,196.916 52.917 C 196.320 55.522,193.940 58.418,191.500 59.508 C 191.271 59.611,190.789 59.848,190.430 60.035 C 188.906 60.830,182.782 60.834,181.473 60.042 C 181.167 59.856,180.729 59.650,180.500 59.584 C 178.893 59.116,176.729 56.931,175.630 54.667 C 172.977 49.198,175.300 41.560,180.250 39.479 C 180.525 39.363,180.869 39.171,181.014 39.051 C 181.159 38.931,181.721 38.755,182.264 38.660 C 182.806 38.565,183.400 38.418,183.583 38.334 C 184.684 37.829,187.094 37.792,188.333 38.260 M266.167 38.360 C 266.762 38.545,267.400 38.769,267.583 38.857 C 268.467 39.280,268.952 39.574,269.333 39.919 C 270.115 40.626,270.500 40.619,270.500 39.897 C 270.500 38.662,270.860 38.500,273.606 38.500 C 277.050 38.500,276.667 37.107,276.667 49.605 L 276.667 59.981 276.296 60.241 C 276.005 60.445,275.440 60.500,273.652 60.500 C 270.845 60.500,270.500 60.334,270.500 58.986 L 270.500 58.162 269.792 58.613 C 269.402 58.861,269.008 59.148,268.917 59.251 C 268.825 59.353,268.225 59.695,267.583 60.010 L 266.417 60.583 263.667 60.579 L 260.917 60.574 259.500 59.884 C 253.606 57.017,251.557 49.106,255.077 42.808 C 255.639 41.803,257.929 39.500,258.366 39.500 C 258.457 39.500,258.741 39.351,258.997 39.169 C 259.252 38.987,259.864 38.753,260.356 38.650 C 260.848 38.546,261.327 38.399,261.422 38.324 C 262.088 37.792,264.401 37.809,266.167 38.360 M216.224 38.546 C 216.760 38.692,217.323 38.919,217.474 39.052 C 217.626 39.185,217.921 39.346,218.131 39.410 C 218.756 39.601,220.449 41.452,221.008 42.555 C 221.880 44.279,221.999 45.552,221.999 53.199 L 222.000 59.981 221.630 60.241 C 221.084 60.623,216.998 60.615,216.411 60.231 L 216.000 59.962 216.000 53.723 C 216.000 45.659,215.871 45.061,213.831 43.679 C 212.957 43.087,210.502 42.930,209.667 43.412 C 209.438 43.544,209.100 43.723,208.917 43.809 C 208.439 44.035,207.782 44.799,207.322 45.667 L 206.924 46.417 206.872 53.290 C 206.820 60.032,206.813 60.166,206.476 60.346 C 206.083 60.556,201.380 60.501,201.042 60.282 C 200.638 60.021,200.750 38.890,201.156 38.673 C 201.624 38.422,206.379 38.446,206.633 38.700 C 206.743 38.810,206.833 39.181,206.833 39.523 C 206.833 40.231,207.032 40.445,207.372 40.104 C 207.500 39.976,207.913 39.714,208.291 39.522 C 208.668 39.329,209.021 39.100,209.075 39.014 C 209.129 38.927,209.602 38.768,210.128 38.660 C 210.653 38.552,211.196 38.397,211.333 38.315 C 211.716 38.087,215.127 38.248,216.224 38.546 M138.500 38.833 C 138.974 39.307,139.029 59.796,138.558 60.188 C 138.119 60.553,133.611 60.611,133.073 60.259 L 132.667 59.992 132.667 49.579 C 132.667 37.084,132.273 38.500,135.750 38.500 C 137.944 38.500,138.197 38.531,138.500 38.833 M170.695 38.776 C 171.143 39.181,171.172 59.816,170.725 60.188 C 170.286 60.553,165.944 60.611,165.407 60.259 L 165.000 59.992 165.000 49.551 C 165.000 40.069,165.025 39.082,165.276 38.805 C 165.671 38.368,170.218 38.344,170.695 38.776 M286.862 38.776 C 287.147 39.033,287.167 39.453,287.167 45.142 C 287.167 52.117,287.340 53.298,288.535 54.451 C 290.839 56.673,294.877 55.930,295.886 53.099 C 296.441 51.539,296.485 50.948,296.493 44.970 C 296.502 37.759,296.147 38.500,299.586 38.500 C 303.058 38.500,302.667 37.100,302.667 49.537 C 302.667 61.959,303.089 60.546,299.399 60.470 C 296.518 60.410,296.507 60.406,296.503 59.236 C 296.499 58.279,296.395 58.256,295.455 59.004 C 294.997 59.369,294.531 59.667,294.417 59.667 C 294.304 59.667,294.007 59.828,293.757 60.024 C 292.796 60.780,287.699 60.784,286.453 60.029 C 286.158 59.851,285.729 59.648,285.500 59.579 C 284.627 59.314,282.914 57.514,282.223 56.135 C 281.312 54.317,281.167 52.847,281.167 45.480 L 281.167 39.019 281.537 38.759 C 282.095 38.369,286.427 38.382,286.862 38.776 M183.722 43.656 C 182.958 44.074,182.550 44.435,181.575 45.553 C 181.268 45.905,180.508 48.667,180.503 49.446 C 180.498 50.299,181.293 53.019,181.661 53.411 C 181.848 53.609,182.000 53.842,182.000 53.927 C 182.000 54.260,183.171 54.992,184.361 55.403 C 188.693 56.898,192.152 52.601,190.914 47.263 C 190.146 43.954,186.509 42.130,183.722 43.656 M263.417 43.472 C 263.142 43.640,262.725 43.825,262.490 43.884 C 260.218 44.452,258.806 49.866,260.239 52.514 C 261.046 54.007,262.137 54.900,263.778 55.411 L 265.179 55.848 266.426 55.429 C 272.568 53.366,271.420 43.164,265.046 43.167 C 264.247 43.168,263.771 43.257,263.417 43.472 M60.939 53.679 L 60.500 54.024 60.505 58.637 C 60.510 62.637,60.551 63.365,60.811 64.118 C 62.366 68.620,70.233 68.767,72.322 64.333 L 72.833 63.250 72.833 58.651 C 72.833 53.656,72.840 53.690,71.884 53.458 C 71.003 53.244,70.924 53.626,70.833 58.559 C 70.755 62.798,70.727 63.126,70.388 63.760 C 69.005 66.342,63.814 66.222,62.760 63.583 C 62.466 62.849,62.416 62.230,62.338 58.392 C 62.258 54.412,62.222 54.004,61.933 53.684 C 61.540 53.251,61.484 53.250,60.939 53.679 " stroke="none" fill="#fbfbfb" fill-rule="evenodd"></path><path id="path2" d="M133.658 30.381 C 133.333 30.676,132.890 31.285,132.675 31.736 L 132.283 32.554 132.596 33.476 C 132.930 34.457,133.819 35.509,134.297 35.487 C 134.527 35.476,134.535 35.455,134.335 35.376 C 132.301 34.579,132.524 30.501,134.631 29.947 C 134.862 29.886,134.853 29.870,134.583 29.859 C 134.400 29.852,133.984 30.087,133.658 30.381 M165.882 30.305 C 165.588 30.557,165.155 31.183,164.919 31.697 L 164.491 32.632 164.841 33.524 C 165.199 34.440,166.062 35.500,166.450 35.500 C 166.570 35.500,166.380 35.240,166.028 34.922 C 164.462 33.507,164.895 30.839,166.831 29.970 C 167.024 29.883,167.005 29.856,166.750 29.852 C 166.567 29.849,166.176 30.053,165.882 30.305 M308.077 31.708 C 307.840 32.330,308.090 60.058,308.333 60.132 C 308.535 60.194,308.543 60.166,308.375 59.988 C 308.078 59.672,308.070 31.997,308.367 31.700 C 308.522 31.544,308.521 31.500,308.361 31.500 C 308.249 31.500,308.120 31.594,308.077 31.708 M103.489 33.263 C 103.309 33.480,103.309 33.620,103.488 34.055 C 103.607 34.346,103.816 34.921,103.951 35.333 C 104.087 35.746,104.378 36.505,104.599 37.021 C 104.819 37.536,105.000 38.063,105.000 38.190 C 105.000 38.317,105.138 38.683,105.307 39.002 C 105.476 39.322,105.703 39.947,105.813 40.390 C 105.923 40.834,106.115 41.359,106.240 41.557 C 106.365 41.755,106.519 42.179,106.583 42.500 C 106.647 42.821,106.831 43.313,106.992 43.593 C 107.153 43.873,107.339 44.398,107.406 44.760 C 107.473 45.121,107.664 45.642,107.829 45.917 C 107.995 46.192,108.184 46.679,108.248 47.000 C 108.313 47.321,108.468 47.745,108.593 47.943 C 108.718 48.141,108.909 48.666,109.016 49.110 C 109.124 49.553,109.351 50.151,109.522 50.436 C 109.693 50.722,109.834 51.097,109.835 51.270 C 109.836 51.442,110.023 51.985,110.252 52.475 C 110.480 52.965,110.667 53.485,110.667 53.631 C 110.667 53.776,110.812 54.200,110.989 54.572 C 111.315 55.257,111.768 56.486,112.315 58.167 C 112.687 59.313,113.125 60.167,113.339 60.167 C 113.440 60.167,113.446 60.055,113.355 59.875 C 112.904 58.989,112.519 58.014,112.415 57.500 C 112.350 57.179,112.155 56.683,111.982 56.397 C 111.809 56.111,111.667 55.733,111.667 55.557 C 111.667 55.381,111.514 54.940,111.327 54.577 C 111.141 54.214,110.905 53.579,110.804 53.167 C 110.702 52.754,110.519 52.229,110.397 52.000 C 110.185 51.603,109.855 50.700,109.179 48.667 C 109.011 48.163,108.753 47.525,108.605 47.250 C 108.457 46.975,108.335 46.615,108.334 46.450 C 108.334 46.285,108.209 45.910,108.056 45.617 C 107.904 45.323,107.645 44.671,107.481 44.167 C 107.136 43.106,106.394 41.058,105.790 39.500 C 105.559 38.904,105.278 38.154,105.165 37.833 C 105.052 37.512,104.781 36.780,104.563 36.205 C 104.345 35.630,104.167 35.067,104.167 34.953 C 104.167 34.838,104.013 34.458,103.825 34.108 C 103.559 33.610,103.526 33.419,103.679 33.235 C 103.786 33.106,103.837 33.000,103.791 33.000 C 103.745 33.000,103.609 33.119,103.489 33.263 M41.888 33.333 C 39.600 33.446,39.676 33.275,39.672 38.333 C 39.669 42.061,39.706 42.227,40.736 43.066 C 41.331 43.550,41.500 44.625,41.500 47.915 C 41.500 51.992,41.493 52.001,38.364 51.998 C 35.094 51.994,35.167 52.089,35.167 47.832 C 35.167 44.313,35.324 43.433,36.020 43.073 C 37.043 42.544,37.088 42.325,37.038 38.089 C 37.012 35.978,36.950 34.044,36.899 33.792 L 36.807 33.333 33.834 33.333 L 30.861 33.333 30.532 33.875 C 30.231 34.371,30.188 34.939,30.013 40.663 C 29.903 44.273,29.687 48.177,29.501 49.913 C 29.324 51.565,29.101 55.446,29.006 58.538 C 28.910 61.630,28.725 65.455,28.594 67.038 C 28.161 72.251,28.116 73.875,28.393 74.250 C 28.635 74.577,28.861 74.584,40.075 74.631 C 54.348 74.689,52.924 75.035,53.324 71.417 C 53.415 70.592,53.574 68.117,53.677 65.917 C 53.780 63.717,53.932 61.579,54.015 61.167 C 54.098 60.754,54.237 60.042,54.322 59.583 C 54.408 59.125,54.562 56.837,54.664 54.500 C 54.972 47.450,54.785 47.749,58.888 47.753 C 60.462 47.754,63.411 47.780,65.440 47.810 C 69.340 47.868,69.726 47.809,69.986 47.115 C 70.158 46.654,69.905 37.588,69.664 35.583 C 69.352 32.995,69.595 33.074,62.333 33.215 L 57.250 33.314 56.875 33.750 C 56.551 34.127,56.500 34.374,56.500 35.582 C 56.500 37.882,55.706 38.797,54.406 37.993 C 53.717 37.568,53.830 37.939,53.688 35.626 C 53.623 34.550,53.497 33.602,53.409 33.521 C 53.226 33.350,44.427 33.207,41.888 33.333 M123.660 33.958 C 123.464 34.394,123.202 35.087,123.079 35.500 C 122.725 36.682,122.163 38.348,121.843 39.167 C 121.474 40.108,121.062 41.294,120.656 42.583 C 120.024 44.588,119.616 45.764,119.326 46.417 C 119.163 46.783,118.978 47.346,118.915 47.667 C 118.852 47.987,118.707 48.400,118.592 48.583 C 118.478 48.767,118.286 49.329,118.167 49.833 C 118.047 50.337,117.857 50.900,117.743 51.083 C 117.630 51.267,117.447 51.810,117.336 52.290 C 117.225 52.770,116.983 53.355,116.798 53.590 C 116.446 54.038,116.487 54.271,116.890 54.117 C 117.020 54.067,117.220 53.626,117.332 53.138 C 117.445 52.650,117.637 52.091,117.759 51.896 C 117.880 51.702,118.104 51.064,118.255 50.480 C 118.406 49.895,118.591 49.342,118.667 49.250 C 118.742 49.158,118.927 48.605,119.078 48.020 C 119.230 47.436,119.453 46.798,119.575 46.604 C 119.696 46.409,119.887 45.856,119.998 45.374 C 120.109 44.893,120.260 44.462,120.333 44.417 C 120.407 44.371,120.559 43.940,120.672 43.459 C 120.785 42.977,120.987 42.369,121.120 42.106 C 121.253 41.844,121.470 41.210,121.604 40.699 C 121.737 40.188,121.911 39.690,121.990 39.593 C 122.069 39.496,122.221 39.079,122.327 38.667 C 122.513 37.945,122.763 37.226,123.519 35.241 C 124.186 33.493,124.288 32.562,123.660 33.958 M225.540 33.305 C 225.376 33.409,225.406 33.654,225.679 34.428 C 225.871 34.972,226.140 35.754,226.278 36.167 C 226.415 36.579,226.666 37.217,226.835 37.583 C 227.005 37.950,227.193 38.475,227.254 38.750 C 227.314 39.025,227.503 39.550,227.673 39.917 C 227.843 40.283,228.090 40.921,228.222 41.333 C 228.624 42.592,228.857 43.212,229.270 44.129 C 229.488 44.612,229.667 45.140,229.667 45.302 C 229.667 45.464,229.815 45.887,229.996 46.243 C 230.178 46.598,230.447 47.308,230.595 47.820 C 230.744 48.331,230.923 48.825,230.995 48.917 C 231.067 49.008,231.242 49.458,231.385 49.917 C 231.529 50.375,231.881 51.387,232.170 52.167 C 232.458 52.946,232.805 53.921,232.941 54.333 C 233.077 54.746,233.293 55.308,233.421 55.583 C 233.675 56.130,234.204 57.610,234.614 58.917 C 234.920 59.896,235.109 60.168,235.479 60.164 C 235.650 60.163,235.682 60.116,235.567 60.039 C 235.299 59.860,235.009 59.257,234.720 58.279 C 234.580 57.805,234.406 57.342,234.333 57.250 C 234.259 57.158,234.111 56.746,234.003 56.333 C 233.894 55.921,233.668 55.283,233.500 54.917 C 233.332 54.550,233.075 53.894,232.930 53.458 C 232.785 53.023,232.547 52.310,232.402 51.875 C 232.256 51.440,231.994 50.811,231.818 50.477 C 231.643 50.144,231.499 49.731,231.498 49.561 C 231.497 49.390,231.310 48.849,231.082 48.358 C 230.853 47.868,230.667 47.340,230.667 47.185 C 230.667 47.031,230.514 46.607,230.327 46.244 C 230.141 45.880,229.906 45.261,229.806 44.868 C 229.706 44.474,229.483 43.877,229.312 43.541 C 229.140 43.205,229.000 42.813,229.000 42.671 C 229.000 42.528,228.862 42.150,228.693 41.831 C 228.524 41.511,228.294 40.876,228.181 40.419 C 228.068 39.962,227.900 39.497,227.809 39.387 C 227.717 39.276,227.501 38.750,227.329 38.218 C 226.704 36.284,226.321 35.241,226.067 34.787 C 225.925 34.532,225.796 34.064,225.779 33.746 C 225.763 33.428,225.750 33.169,225.750 33.170 C 225.750 33.171,225.656 33.232,225.540 33.305 M245.931 33.484 C 245.773 33.659,245.531 34.232,245.394 34.757 C 245.257 35.283,245.045 35.871,244.924 36.065 C 244.803 36.258,244.653 36.706,244.591 37.060 C 244.529 37.413,244.338 38.013,244.167 38.393 C 243.838 39.124,243.502 40.101,243.005 41.766 C 242.839 42.324,242.592 42.999,242.457 43.266 C 242.322 43.532,242.158 44.042,242.093 44.399 C 242.029 44.757,241.874 45.207,241.749 45.399 C 241.624 45.592,241.432 46.125,241.323 46.583 C 241.214 47.042,241.022 47.583,240.895 47.787 C 240.769 47.991,240.580 48.552,240.477 49.035 C 240.373 49.518,240.193 50.064,240.077 50.248 C 239.961 50.433,239.815 50.846,239.752 51.167 C 239.689 51.487,239.500 52.050,239.331 52.417 C 238.835 53.497,238.512 54.333,238.590 54.333 C 238.787 54.333,239.486 52.968,239.742 52.083 C 239.901 51.533,240.093 51.008,240.168 50.917 C 240.242 50.825,240.429 50.262,240.583 49.667 C 240.737 49.071,240.926 48.507,241.003 48.414 C 241.079 48.322,241.232 47.872,241.342 47.414 C 241.452 46.957,241.643 46.419,241.768 46.219 C 241.892 46.018,242.074 45.497,242.172 45.060 C 242.270 44.623,242.458 44.037,242.591 43.758 C 242.723 43.478,242.939 42.875,243.072 42.417 C 243.488 40.975,244.019 39.442,244.349 38.732 C 244.524 38.355,244.668 37.905,244.670 37.732 C 244.672 37.558,244.825 37.083,245.010 36.675 C 245.195 36.267,245.420 35.608,245.509 35.210 C 245.598 34.812,245.859 34.189,246.088 33.826 C 246.522 33.139,246.428 32.935,245.931 33.484 M319.663 33.761 C 319.573 33.996,319.500 35.081,319.500 36.171 C 319.500 38.012,319.473 38.179,319.125 38.503 L 318.750 38.853 319.163 38.700 C 319.708 38.499,319.797 38.112,319.817 35.864 C 319.826 34.827,319.911 33.833,320.006 33.656 C 320.126 33.431,320.125 33.333,320.002 33.333 C 319.905 33.333,319.752 33.526,319.663 33.761 M150.417 38.500 C 150.295 38.697,150.458 38.697,150.917 38.500 C 151.238 38.362,151.237 38.356,150.885 38.345 C 150.684 38.339,150.473 38.408,150.417 38.500 M184.417 38.500 C 184.119 38.628,184.131 38.644,184.532 38.655 C 184.779 38.661,185.027 38.592,185.083 38.500 C 185.206 38.301,184.880 38.301,184.417 38.500 M261.917 38.601 L 261.250 38.834 261.917 38.735 C 262.610 38.632,263.339 38.331,262.833 38.356 C 262.696 38.363,262.283 38.473,261.917 38.601 M133.255 38.936 C 132.789 39.401,132.879 59.923,133.348 60.174 C 133.539 60.277,133.737 60.319,133.788 60.267 C 133.839 60.216,133.758 60.127,133.607 60.069 C 133.357 59.973,133.333 59.057,133.333 49.560 L 133.333 39.156 133.693 39.023 C 133.997 38.910,134.011 38.873,133.782 38.785 C 133.632 38.728,133.395 38.796,133.255 38.936 M165.533 38.867 C 165.197 39.203,165.250 59.890,165.587 60.170 C 165.727 60.286,165.895 60.327,165.961 60.261 C 166.027 60.195,165.950 60.069,165.790 59.979 C 165.305 59.708,165.346 39.176,165.831 39.049 C 166.014 39.001,166.122 38.896,166.072 38.814 C 165.947 38.612,165.771 38.629,165.533 38.867 M296.929 38.929 C 296.699 39.158,296.667 40.022,296.667 45.888 L 296.667 52.586 296.230 53.418 C 295.651 54.520,295.116 55.026,293.948 55.577 C 293.415 55.829,293.010 56.065,293.047 56.103 C 293.184 56.240,295.094 55.268,295.514 54.848 C 296.938 53.421,297.167 52.023,297.167 44.723 C 297.167 39.928,297.201 39.143,297.417 39.060 C 297.554 39.008,297.667 38.897,297.667 38.816 C 297.667 38.575,297.212 38.645,296.929 38.929 M180.919 39.429 C 180.279 39.754,179.635 40.127,179.489 40.260 C 179.343 40.392,179.153 40.500,179.066 40.500 C 178.633 40.500,176.322 43.412,175.934 44.447 C 175.803 44.797,175.577 45.402,175.432 45.792 C 174.851 47.353,174.944 52.497,175.573 53.632 C 175.710 53.880,175.939 54.346,176.082 54.667 C 176.979 56.689,179.850 59.497,181.025 59.501 C 181.149 59.501,181.496 59.651,181.796 59.834 C 182.096 60.017,182.470 60.167,182.627 60.167 C 183.027 60.167,181.863 59.566,181.025 59.340 C 180.645 59.238,180.333 59.087,180.333 59.005 C 180.333 58.923,180.181 58.808,179.996 58.749 C 178.650 58.321,176.626 55.643,175.768 53.154 C 175.237 51.613,175.136 47.480,175.599 46.250 C 175.737 45.883,175.960 45.230,176.096 44.799 C 176.231 44.367,176.413 43.970,176.500 43.917 C 176.587 43.863,176.773 43.576,176.914 43.279 C 177.631 41.768,180.535 39.511,182.417 39.003 C 182.879 38.878,182.886 38.866,182.500 38.854 C 182.271 38.846,181.559 39.105,180.919 39.429 M201.533 39.033 C 201.236 39.330,201.245 59.930,201.542 60.044 C 201.707 60.108,201.741 57.968,201.706 49.615 C 201.671 41.285,201.705 39.078,201.873 38.972 C 201.988 38.899,202.005 38.837,201.908 38.836 C 201.812 38.834,201.643 38.923,201.533 39.033 M209.249 39.269 C 208.791 39.509,208.229 39.872,208.000 40.077 C 207.771 40.282,207.398 40.573,207.171 40.724 C 206.945 40.876,206.816 41.000,206.885 41.000 C 207.047 41.000,207.819 40.522,208.250 40.154 C 208.433 39.998,209.025 39.637,209.565 39.352 C 210.105 39.067,210.442 38.833,210.314 38.833 C 210.186 38.833,209.706 39.029,209.249 39.269 M259.089 39.420 C 254.782 41.866,252.805 47.288,254.228 52.750 C 254.490 53.758,254.802 54.696,254.919 54.833 C 255.037 54.971,255.254 55.346,255.401 55.667 C 255.962 56.888,257.854 58.821,259.000 59.345 C 259.229 59.450,259.732 59.693,260.118 59.886 C 260.504 60.078,260.873 60.183,260.938 60.118 C 261.003 60.053,260.940 60.000,260.798 60.000 C 260.657 60.000,260.458 59.900,260.356 59.777 C 260.254 59.654,259.870 59.464,259.502 59.354 C 259.134 59.243,258.833 59.086,258.833 59.005 C 258.833 58.923,258.697 58.813,258.531 58.760 C 257.940 58.572,255.500 55.840,255.500 55.366 C 255.500 55.301,255.319 54.908,255.099 54.494 C 254.575 53.510,253.925 49.759,254.074 48.584 C 254.366 46.287,255.290 43.258,255.829 42.833 C 255.887 42.788,256.099 42.487,256.300 42.167 C 256.851 41.286,258.169 40.181,259.515 39.470 C 260.178 39.120,260.577 38.838,260.402 38.844 C 260.227 38.850,259.636 39.109,259.089 39.420 M281.840 39.075 C 281.688 39.258,281.653 41.118,281.696 46.700 L 281.753 54.083 282.413 55.583 C 283.190 57.350,284.854 59.186,285.961 59.497 C 286.303 59.593,286.729 59.783,286.907 59.919 C 287.085 60.055,287.384 60.167,287.571 60.167 C 287.976 60.167,287.108 59.666,286.167 59.358 C 284.815 58.914,283.249 57.047,282.442 54.917 L 281.937 53.583 281.874 46.447 C 281.827 41.096,281.860 39.252,282.009 39.072 C 282.118 38.941,282.170 38.833,282.124 38.833 C 282.078 38.833,281.951 38.942,281.840 39.075 M317.036 38.974 C 316.638 39.227,316.834 42.731,317.250 42.806 C 317.520 42.854,317.543 42.824,317.375 42.650 C 317.022 42.283,317.092 39.227,317.458 39.013 C 317.687 38.880,317.696 38.843,317.500 38.841 C 317.362 38.840,317.154 38.900,317.036 38.974 M146.667 39.547 C 145.762 40.069,144.948 40.816,144.200 41.812 C 143.479 42.772,143.301 45.801,143.883 47.194 C 144.362 48.342,147.215 50.484,147.988 50.276 C 148.191 50.221,148.181 50.201,147.943 50.186 C 147.774 50.175,147.445 50.017,147.212 49.833 C 146.979 49.650,146.693 49.500,146.577 49.500 C 146.203 49.500,144.954 48.333,144.376 47.445 L 143.815 46.583 143.868 44.667 C 143.916 42.965,143.968 42.676,144.336 42.091 C 144.845 41.281,146.279 39.872,146.742 39.728 C 147.119 39.610,147.966 38.994,147.731 39.009 C 147.650 39.015,147.171 39.256,146.667 39.547 M271.111 39.111 C 271.050 39.172,271.000 39.617,271.000 40.099 C 271.000 40.674,270.910 41.066,270.738 41.238 C 270.594 41.382,270.552 41.500,270.645 41.500 C 270.937 41.500,271.075 41.116,271.168 40.042 C 271.217 39.469,271.250 39.000,271.240 39.000 C 271.230 39.000,271.172 39.050,271.111 39.111 M152.569 42.477 C 152.618 42.556,152.990 42.714,153.396 42.828 C 154.288 43.077,155.160 43.924,155.316 44.693 C 155.411 45.165,155.504 45.254,155.923 45.276 C 156.253 45.294,156.294 45.277,156.045 45.224 C 155.785 45.168,155.623 44.958,155.506 44.523 C 155.300 43.757,154.671 43.149,153.604 42.686 C 152.734 42.309,152.427 42.246,152.569 42.477 M188.451 43.500 C 192.209 45.641,192.846 51.437,189.657 54.478 C 189.184 54.929,188.587 55.341,188.331 55.392 C 187.775 55.503,186.640 56.165,187.005 56.166 C 187.145 56.166,187.407 56.065,187.588 55.940 C 187.769 55.816,188.187 55.626,188.517 55.519 C 189.318 55.259,190.459 54.139,191.170 52.914 L 191.750 51.917 191.750 49.417 L 191.750 46.917 191.193 45.917 C 190.336 44.381,189.092 43.327,187.667 42.931 C 187.438 42.867,187.791 43.123,188.451 43.500 M213.258 42.978 C 214.411 43.494,215.311 44.373,216.011 45.667 L 216.417 46.417 216.467 53.167 C 216.495 56.879,216.570 59.969,216.634 60.034 C 216.698 60.098,216.713 56.985,216.667 53.117 L 216.583 46.083 215.995 45.094 C 215.374 44.048,214.216 43.083,213.385 42.919 C 213.005 42.843,212.981 42.854,213.258 42.978 M266.334 42.886 C 266.379 42.930,266.867 43.197,267.417 43.478 C 269.845 44.720,270.878 46.506,270.902 49.507 C 270.913 50.853,270.854 51.360,270.650 51.674 C 270.504 51.899,270.294 52.358,270.184 52.694 C 269.954 53.396,268.519 54.927,267.762 55.279 L 267.250 55.516 267.750 55.413 C 270.456 54.853,272.150 49.304,270.552 46.236 C 270.025 45.226,268.625 43.667,268.245 43.667 C 268.135 43.667,267.866 43.528,267.647 43.359 C 267.307 43.095,266.100 42.661,266.334 42.886 M319.125 43.107 L 319.500 43.374 319.500 48.660 C 319.500 54.899,319.649 56.404,320.380 57.541 C 320.930 58.397,322.226 59.507,322.652 59.488 C 322.887 59.478,322.888 59.464,322.659 59.363 C 321.873 59.017,320.959 58.025,320.418 56.930 L 319.833 55.747 319.833 49.561 C 319.833 43.057,319.848 43.189,319.083 42.946 C 318.791 42.853,318.796 42.873,319.125 43.107 M148.917 50.602 C 149.961 50.999,150.317 51.037,149.583 50.673 C 149.217 50.491,148.767 50.343,148.583 50.345 C 148.391 50.347,148.533 50.456,148.917 50.602 M152.308 51.585 C 152.799 51.813,153.324 51.993,153.475 51.983 C 153.686 51.971,153.673 51.940,153.417 51.849 C 153.233 51.785,152.804 51.605,152.464 51.449 C 152.123 51.294,151.748 51.167,151.630 51.168 C 151.513 51.169,151.818 51.357,152.308 51.585 M154.000 52.121 C 155.668 52.751,156.099 54.660,154.816 55.739 C 154.536 55.974,154.398 56.167,154.509 56.167 C 155.268 56.167,156.180 54.329,155.851 53.462 C 155.660 52.962,154.434 51.993,154.017 52.013 C 153.790 52.024,153.788 52.041,154.000 52.121 M143.111 53.778 C 142.420 54.469,144.341 57.644,146.151 58.800 C 147.152 59.439,148.977 60.245,149.115 60.108 C 149.174 60.048,149.106 60.000,148.965 60.000 C 148.823 60.000,148.622 59.897,148.517 59.770 C 148.412 59.644,148.099 59.495,147.822 59.439 C 147.545 59.384,147.071 59.150,146.768 58.919 C 146.466 58.689,146.157 58.500,146.082 58.500 C 145.002 58.500,142.724 53.974,143.708 53.784 C 144.050 53.718,144.045 53.710,143.653 53.689 C 143.416 53.677,143.172 53.717,143.111 53.778 M266.250 55.857 C 265.691 56.134,265.662 56.171,266.070 56.084 C 266.337 56.026,266.710 55.872,266.899 55.740 C 267.378 55.404,267.042 55.465,266.250 55.857 M270.970 58.717 C 271.005 59.377,271.082 59.969,271.142 60.033 C 271.201 60.098,271.212 59.598,271.167 58.922 C 271.121 58.247,271.044 57.654,270.995 57.606 C 270.947 57.558,270.935 58.058,270.970 58.717 M296.667 58.741 C 296.667 59.866,296.878 60.335,297.381 60.328 C 297.723 60.323,297.729 60.307,297.458 60.101 C 297.249 59.942,297.167 59.645,297.167 59.044 C 297.167 58.504,297.078 58.134,296.917 58.000 C 296.699 57.820,296.667 57.917,296.667 58.741 M323.477 59.757 C 323.786 59.890,324.123 59.997,324.227 59.994 C 324.557 59.984,323.599 59.512,323.250 59.512 C 323.020 59.513,323.090 59.588,323.477 59.757 " stroke="none" fill="#e6493d" fill-rule="evenodd"></path><path id="path3" d="M133.519 30.070 C 132.313 30.959,131.838 32.120,132.136 33.448 C 132.300 34.176,133.206 35.445,133.650 35.567 C 133.797 35.607,134.104 35.691,134.333 35.753 C 134.608 35.827,134.490 35.697,133.987 35.371 C 133.245 34.891,132.679 34.022,132.410 32.951 C 132.252 32.321,133.008 30.884,133.846 30.221 C 134.644 29.590,134.352 29.455,133.519 30.070 M165.299 30.486 L 164.417 31.306 164.417 32.707 C 164.417 34.020,164.448 34.147,164.917 34.709 C 165.394 35.283,166.731 35.991,166.940 35.782 C 166.995 35.728,166.852 35.636,166.623 35.578 C 166.008 35.424,165.237 34.536,164.842 33.528 L 164.494 32.639 164.927 31.674 C 165.318 30.803,165.947 30.126,166.664 29.803 C 166.850 29.720,166.819 29.687,166.549 29.678 C 166.328 29.671,165.828 29.994,165.299 30.486 M307.533 31.533 C 307.244 31.823,307.244 59.844,307.533 60.133 C 307.643 60.243,307.925 60.331,308.158 60.328 C 308.527 60.324,308.545 60.301,308.292 60.153 C 308.018 59.994,308.000 59.134,308.000 45.833 C 308.000 32.533,308.018 31.673,308.292 31.513 C 308.545 31.366,308.527 31.343,308.158 31.338 C 307.925 31.336,307.643 31.423,307.533 31.533 M42.224 32.845 C 39.109 32.992,39.252 32.769,39.091 37.738 C 38.989 40.899,38.841 41.395,38.031 41.302 C 37.518 41.242,37.393 40.218,37.353 35.740 C 37.327 32.823,37.442 32.948,34.688 32.862 C 29.689 32.706,29.993 32.348,29.735 38.694 C 29.621 41.486,29.448 44.628,29.350 45.677 C 29.155 47.768,28.905 52.463,28.747 57.000 C 28.691 58.604,28.538 61.192,28.406 62.750 C 27.965 67.956,27.800 73.765,28.076 74.424 L 28.316 75.000 58.146 75.000 C 86.121 75.000,87.994 74.982,88.263 74.714 C 88.605 74.371,88.529 71.076,88.097 67.500 C 87.958 66.354,87.728 63.654,87.586 61.500 C 87.443 59.346,87.256 57.058,87.169 56.417 C 87.024 55.347,86.788 52.490,86.606 49.589 C 86.543 48.587,86.472 48.375,86.090 48.047 L 85.648 47.667 78.513 47.667 C 71.618 47.667,71.364 47.655,70.952 47.332 C 70.414 46.908,70.385 46.615,70.171 39.480 C 70.082 36.490,69.935 33.850,69.845 33.613 C 69.579 32.915,68.845 32.830,62.971 32.812 C 55.847 32.790,56.134 32.677,55.998 35.556 C 55.926 37.089,55.864 37.398,55.591 37.598 C 54.663 38.277,54.240 37.578,54.129 35.182 C 54.036 33.181,53.962 33.072,52.606 32.929 C 51.310 32.792,44.519 32.737,42.224 32.845 M245.834 33.052 C 245.590 33.174,245.385 33.474,245.299 33.833 C 245.223 34.154,245.074 34.567,244.967 34.750 C 244.860 34.933,244.642 35.533,244.481 36.083 C 244.321 36.633,243.954 37.721,243.665 38.500 C 243.377 39.279,243.033 40.292,242.902 40.750 C 242.772 41.208,242.558 41.808,242.428 42.083 C 242.298 42.358,242.099 42.958,241.985 43.417 C 241.872 43.875,241.688 44.400,241.577 44.583 C 241.466 44.767,241.288 45.280,241.181 45.724 C 241.075 46.168,240.886 46.693,240.762 46.890 C 240.639 47.088,240.443 47.663,240.327 48.167 C 240.211 48.671,240.023 49.233,239.910 49.417 C 239.797 49.600,239.611 50.163,239.497 50.667 C 239.383 51.171,239.219 51.673,239.133 51.782 C 238.869 52.115,238.355 53.994,238.502 54.085 C 238.578 54.131,238.732 53.888,238.845 53.543 C 238.958 53.199,239.147 52.767,239.264 52.583 C 239.382 52.400,239.568 51.875,239.677 51.417 C 239.786 50.958,239.968 50.433,240.082 50.248 C 240.195 50.064,240.373 49.518,240.477 49.035 C 240.580 48.552,240.769 47.991,240.895 47.787 C 241.022 47.583,241.214 47.042,241.323 46.583 C 241.432 46.125,241.624 45.592,241.749 45.399 C 241.874 45.207,242.029 44.757,242.093 44.399 C 242.158 44.042,242.322 43.532,242.457 43.266 C 242.592 42.999,242.839 42.324,243.005 41.766 C 243.502 40.101,243.838 39.124,244.167 38.393 C 244.338 38.013,244.529 37.413,244.591 37.060 C 244.653 36.706,244.803 36.258,244.924 36.065 C 245.045 35.871,245.259 35.271,245.399 34.731 C 245.560 34.111,245.809 33.616,246.076 33.384 C 246.563 32.962,246.417 32.761,245.834 33.052 M103.053 33.181 C 102.868 33.365,103.296 35.123,103.630 35.551 C 103.715 35.661,103.873 36.111,103.981 36.551 C 104.088 36.992,104.324 37.628,104.505 37.965 C 104.685 38.303,104.834 38.730,104.834 38.914 C 104.834 39.099,104.976 39.481,105.148 39.764 C 105.320 40.047,105.514 40.534,105.579 40.847 C 105.643 41.160,105.830 41.717,105.994 42.083 C 106.279 42.719,106.455 43.203,107.085 45.083 C 107.239 45.542,107.545 46.339,107.765 46.854 C 107.986 47.370,108.167 47.887,108.167 48.003 C 108.167 48.119,108.311 48.522,108.486 48.898 C 108.662 49.275,108.919 49.921,109.056 50.333 C 109.194 50.746,109.542 51.721,109.830 52.500 C 110.119 53.279,110.473 54.292,110.618 54.750 C 110.763 55.208,110.979 55.733,111.098 55.917 C 111.217 56.100,111.387 56.550,111.475 56.917 C 111.629 57.558,112.154 58.963,112.565 59.832 C 112.673 60.061,112.891 60.273,113.049 60.303 C 113.306 60.353,113.300 60.295,112.988 59.767 C 112.796 59.441,112.499 58.742,112.328 58.212 C 111.781 56.522,111.320 55.269,110.989 54.572 C 110.812 54.200,110.667 53.776,110.667 53.631 C 110.667 53.485,110.480 52.965,110.252 52.475 C 110.023 51.985,109.836 51.442,109.835 51.270 C 109.834 51.097,109.693 50.722,109.522 50.436 C 109.351 50.151,109.124 49.553,109.016 49.110 C 108.909 48.666,108.718 48.141,108.593 47.943 C 108.468 47.745,108.313 47.321,108.248 47.000 C 108.184 46.679,107.995 46.192,107.829 45.917 C 107.664 45.642,107.473 45.121,107.406 44.760 C 107.339 44.398,107.153 43.873,106.992 43.593 C 106.831 43.313,106.647 42.821,106.583 42.500 C 106.519 42.179,106.365 41.755,106.240 41.557 C 106.115 41.359,105.924 40.834,105.816 40.390 C 105.708 39.947,105.519 39.396,105.397 39.167 C 105.189 38.778,104.821 37.784,104.224 36.000 C 104.086 35.587,103.814 34.889,103.620 34.448 C 103.330 33.791,103.303 33.587,103.468 33.323 C 103.697 32.956,103.384 32.849,103.053 33.181 M123.536 33.298 C 123.357 33.477,123.116 34.027,123.000 34.520 C 122.884 35.013,122.680 35.632,122.546 35.895 C 122.413 36.158,122.203 36.721,122.079 37.145 C 121.774 38.191,121.166 40.008,120.984 40.417 C 120.774 40.886,120.025 43.091,119.739 44.083 C 119.606 44.542,119.393 45.142,119.264 45.417 C 119.135 45.692,118.941 46.254,118.832 46.667 C 118.723 47.079,118.573 47.492,118.499 47.583 C 118.424 47.675,118.237 48.237,118.083 48.833 C 117.929 49.429,117.741 49.993,117.664 50.086 C 117.587 50.178,117.433 50.628,117.321 51.086 C 117.209 51.543,116.979 52.195,116.809 52.535 C 116.639 52.875,116.502 53.325,116.506 53.535 L 116.511 53.917 116.822 53.545 C 116.992 53.340,117.223 52.777,117.335 52.295 C 117.446 51.812,117.630 51.267,117.743 51.083 C 117.857 50.900,118.047 50.337,118.167 49.833 C 118.286 49.329,118.478 48.767,118.592 48.583 C 118.707 48.400,118.852 47.987,118.915 47.667 C 118.978 47.346,119.163 46.783,119.326 46.417 C 119.616 45.764,120.024 44.588,120.656 42.583 C 121.098 41.179,121.505 40.015,121.793 39.333 C 121.929 39.012,122.174 38.300,122.339 37.750 C 122.743 36.398,123.140 35.275,123.625 34.112 C 124.068 33.051,124.039 32.794,123.536 33.298 M225.003 33.246 C 224.840 33.443,224.869 33.634,225.150 34.215 C 225.342 34.613,225.500 35.025,225.500 35.131 C 225.500 35.238,225.645 35.645,225.822 36.037 C 225.999 36.429,226.255 37.087,226.392 37.500 C 226.528 37.912,226.875 38.887,227.162 39.667 C 227.450 40.446,227.818 41.496,227.982 42.000 C 228.145 42.504,228.360 43.067,228.460 43.250 C 228.560 43.433,228.768 43.958,228.921 44.417 C 229.607 46.464,230.013 47.566,230.144 47.735 C 230.222 47.835,230.374 48.280,230.482 48.724 C 230.591 49.168,230.782 49.693,230.907 49.890 C 231.032 50.088,231.186 50.512,231.250 50.833 C 231.314 51.154,231.495 51.642,231.653 51.917 C 231.810 52.192,232.031 52.780,232.143 53.224 C 232.254 53.668,232.448 54.193,232.573 54.390 C 232.698 54.588,232.853 55.012,232.917 55.333 C 232.980 55.654,233.135 56.078,233.260 56.276 C 233.385 56.474,233.577 56.999,233.687 57.443 C 233.797 57.887,234.024 58.511,234.193 58.831 C 234.362 59.150,234.500 59.529,234.500 59.673 C 234.500 60.059,234.844 60.334,235.325 60.331 L 235.750 60.328 235.351 60.123 C 234.966 59.924,234.773 59.484,233.910 56.833 C 233.775 56.421,233.558 55.858,233.427 55.583 C 233.296 55.308,233.077 54.746,232.941 54.333 C 232.805 53.921,232.458 52.946,232.170 52.167 C 231.881 51.387,231.529 50.375,231.385 49.917 C 231.242 49.458,231.067 49.008,230.995 48.917 C 230.923 48.825,230.744 48.331,230.595 47.820 C 230.447 47.308,230.178 46.598,229.996 46.243 C 229.815 45.887,229.667 45.464,229.667 45.302 C 229.667 45.140,229.488 44.612,229.270 44.129 C 228.857 43.212,228.624 42.592,228.222 41.333 C 228.090 40.921,227.843 40.283,227.673 39.917 C 227.503 39.550,227.314 39.025,227.254 38.750 C 227.193 38.475,227.005 37.950,226.835 37.583 C 226.666 37.217,226.415 36.579,226.278 36.167 C 226.140 35.754,225.870 34.967,225.676 34.418 C 225.459 33.804,225.390 33.398,225.495 33.363 C 225.590 33.331,225.667 33.237,225.667 33.153 C 225.667 32.913,225.229 32.974,225.003 33.246 M319.299 33.208 C 319.071 33.387,318.716 38.667,318.932 38.667 C 319.351 38.667,319.500 37.998,319.501 36.113 C 319.502 34.701,319.573 33.948,319.735 33.637 C 320.055 33.024,319.823 32.797,319.299 33.208 M53.409 33.521 C 53.497 33.602,53.623 34.550,53.688 35.626 C 53.830 37.939,53.717 37.568,54.406 37.993 C 55.706 38.797,56.500 37.882,56.500 35.582 C 56.500 34.374,56.551 34.127,56.875 33.750 L 57.250 33.314 62.333 33.215 C 69.595 33.074,69.352 32.995,69.664 35.583 C 69.905 37.588,70.158 46.654,69.986 47.115 C 69.726 47.809,69.340 47.868,65.440 47.810 C 63.411 47.780,60.462 47.754,58.888 47.753 C 54.785 47.749,54.972 47.450,54.664 54.500 C 54.562 56.837,54.408 59.125,54.322 59.583 C 54.237 60.042,54.098 60.754,54.015 61.167 C 53.932 61.579,53.780 63.717,53.677 65.917 C 53.574 68.117,53.415 70.592,53.324 71.417 C 52.924 75.035,54.348 74.689,40.075 74.631 C 28.861 74.584,28.635 74.577,28.393 74.250 C 28.116 73.875,28.161 72.251,28.594 67.038 C 28.725 65.455,28.910 61.630,29.006 58.538 C 29.101 55.446,29.324 51.565,29.501 49.913 C 29.687 48.177,29.903 44.273,30.013 40.663 C 30.188 34.939,30.231 34.371,30.532 33.875 L 30.861 33.333 33.834 33.333 L 36.807 33.333 36.899 33.792 C 36.950 34.044,37.012 35.978,37.038 38.089 C 37.088 42.325,37.043 42.544,36.020 43.073 C 35.324 43.433,35.167 44.313,35.167 47.832 C 35.167 52.089,35.094 51.994,38.364 51.998 C 41.493 52.001,41.500 51.992,41.500 47.915 C 41.500 44.625,41.331 43.550,40.736 43.066 C 39.706 42.227,39.669 42.061,39.672 38.333 C 39.674 35.198,39.792 33.820,40.082 33.528 C 40.388 33.220,53.078 33.212,53.409 33.521 M261.627 38.451 C 261.834 38.491,262.134 38.490,262.294 38.448 C 262.453 38.406,262.283 38.374,261.917 38.375 C 261.550 38.377,261.420 38.411,261.627 38.451 M201.113 38.708 C 200.851 38.901,200.833 39.703,200.873 49.583 L 200.917 60.250 201.417 60.295 C 201.869 60.337,201.889 60.319,201.625 60.110 C 201.212 59.784,201.169 39.344,201.581 39.002 C 202.047 38.615,201.611 38.343,201.113 38.708 M296.762 38.762 C 296.534 38.990,296.499 39.793,296.493 44.970 C 296.489 48.241,296.419 51.217,296.337 51.583 C 295.865 53.701,295.157 54.730,293.762 55.328 C 293.343 55.508,293.000 55.739,293.000 55.841 C 293.000 55.944,293.056 56.000,293.125 55.965 C 293.194 55.930,293.618 55.735,294.067 55.530 C 295.077 55.069,295.663 54.496,296.230 53.418 L 296.667 52.586 296.667 45.883 C 296.667 39.202,296.668 39.179,297.031 38.840 C 297.232 38.653,297.312 38.500,297.210 38.500 C 297.108 38.500,296.906 38.618,296.762 38.762 M316.593 38.870 C 315.923 39.826,316.362 43.167,317.157 43.167 C 317.478 43.167,317.484 42.868,317.165 42.785 C 316.652 42.651,316.656 39.079,317.169 38.916 C 317.354 38.857,317.462 38.740,317.409 38.655 C 317.243 38.386,316.862 38.487,316.593 38.870 M132.839 38.989 C 132.726 39.201,132.667 42.833,132.667 49.622 C 132.667 60.279,132.671 60.341,133.325 60.328 C 133.538 60.324,133.532 60.293,133.292 60.153 C 132.866 59.906,132.837 39.353,133.262 38.929 C 133.495 38.696,133.496 38.667,133.268 38.667 C 133.127 38.667,132.934 38.812,132.839 38.989 M165.200 38.867 C 165.049 39.018,165.000 41.607,165.000 49.500 C 165.000 60.011,165.017 60.333,165.567 60.333 C 165.659 60.333,165.644 60.244,165.533 60.133 C 165.244 59.844,165.244 39.156,165.533 38.867 C 165.644 38.756,165.659 38.667,165.567 38.667 C 165.475 38.667,165.310 38.757,165.200 38.867 M209.324 38.920 C 209.100 39.048,208.598 39.321,208.208 39.526 C 207.819 39.732,207.500 39.957,207.500 40.027 C 207.500 40.097,207.336 40.307,207.135 40.494 C 206.528 41.059,207.059 40.874,207.762 40.275 C 208.122 39.967,208.777 39.525,209.218 39.291 C 209.659 39.057,209.955 38.825,209.876 38.776 C 209.796 38.727,209.548 38.792,209.324 38.920 M270.777 38.971 C 270.349 39.443,270.358 41.697,270.786 41.270 C 270.896 41.159,271.177 38.803,271.092 38.707 C 271.071 38.684,270.929 38.802,270.777 38.971 M281.367 38.867 C 281.036 39.197,281.091 51.491,281.431 53.512 C 281.882 56.184,283.817 59.069,285.500 59.579 C 285.729 59.648,286.151 59.846,286.436 60.019 C 286.722 60.192,287.060 60.332,287.186 60.330 C 287.573 60.323,286.631 59.682,285.961 59.495 C 284.855 59.187,283.191 57.352,282.413 55.583 L 281.753 54.083 281.696 46.689 C 281.657 41.537,281.694 39.239,281.820 39.114 C 281.919 39.014,282.000 38.873,282.000 38.800 C 282.000 38.598,281.593 38.641,281.367 38.867 M146.915 39.002 C 146.858 39.095,146.525 39.317,146.175 39.496 C 143.584 40.818,142.288 44.166,143.341 46.818 C 143.953 48.360,146.382 50.484,147.315 50.294 C 147.471 50.262,147.188 50.044,146.640 49.774 C 142.227 47.598,142.377 41.964,146.917 39.407 C 147.767 38.928,147.850 38.843,147.468 38.838 C 147.221 38.836,146.973 38.909,146.915 39.002 M181.082 39.003 C 181.024 39.096,180.701 39.287,180.364 39.427 C 172.600 42.656,172.728 56.841,180.546 59.600 C 180.894 59.722,181.343 59.938,181.543 60.078 C 181.743 60.218,182.060 60.331,182.245 60.328 C 182.632 60.322,181.423 59.502,181.025 59.501 C 179.849 59.496,176.979 56.689,176.082 54.667 C 175.939 54.346,175.710 53.880,175.573 53.632 C 174.944 52.497,174.851 47.353,175.432 45.792 C 175.577 45.402,175.803 44.797,175.934 44.447 C 176.322 43.412,178.633 40.500,179.066 40.500 C 179.153 40.500,179.343 40.392,179.489 40.260 C 179.635 40.127,180.279 39.754,180.919 39.429 C 181.840 38.963,181.990 38.839,181.635 38.836 C 181.388 38.835,181.139 38.909,181.082 39.003 M259.000 39.167 C 258.771 39.346,258.497 39.494,258.392 39.496 C 257.926 39.505,255.655 41.773,255.077 42.808 C 252.588 47.261,252.908 53.197,255.847 57.074 C 256.856 58.406,259.745 60.333,260.732 60.333 C 261.018 60.333,260.294 59.922,258.917 59.304 C 257.858 58.829,255.944 56.848,255.401 55.667 C 255.254 55.346,255.037 54.971,254.919 54.833 C 254.407 54.235,253.749 50.981,253.774 49.167 C 253.830 45.061,255.914 41.110,258.833 39.575 C 259.991 38.966,260.150 38.838,259.750 38.840 C 259.567 38.840,259.229 38.987,259.000 39.167 M153.417 43.036 C 153.785 43.252,154.322 43.797,154.616 44.255 C 155.328 45.360,155.463 45.502,155.798 45.489 C 156.009 45.482,155.985 45.439,155.708 45.328 C 155.460 45.228,155.333 45.037,155.333 44.761 C 155.333 44.297,154.458 43.205,153.927 43.006 C 152.988 42.655,152.786 42.667,153.417 43.036 M187.429 43.147 C 187.376 43.233,187.689 43.475,188.125 43.684 C 192.355 45.720,192.084 54.193,187.750 55.355 C 186.927 55.576,186.803 55.649,186.921 55.841 C 186.973 55.924,187.292 55.844,187.630 55.663 C 187.968 55.482,188.361 55.333,188.503 55.333 C 189.007 55.333,190.503 53.689,191.047 52.537 C 192.179 50.138,191.685 46.488,189.978 44.642 C 189.335 43.946,187.573 42.913,187.429 43.147 M213.167 43.133 C 213.167 43.207,213.485 43.469,213.875 43.715 C 215.799 44.933,215.875 45.281,215.989 53.415 C 216.070 59.156,216.118 60.086,216.333 60.127 C 216.553 60.170,216.573 59.351,216.500 53.296 L 216.417 46.417 216.011 45.667 C 215.238 44.239,213.167 42.394,213.167 43.133 M266.429 43.147 C 266.383 43.221,266.716 43.456,267.170 43.668 C 271.198 45.555,271.663 51.970,267.973 54.744 C 267.420 55.160,267.014 55.500,267.072 55.500 C 267.858 55.500,269.854 53.700,270.184 52.694 C 270.294 52.358,270.504 51.899,270.650 51.674 C 271.368 50.570,270.797 46.634,269.733 45.344 C 268.816 44.233,266.649 42.792,266.429 43.147 M318.958 46.183 C 319.080 55.345,319.088 55.499,319.541 56.667 C 320.014 57.885,321.343 59.383,322.123 59.578 C 322.376 59.641,322.824 59.806,323.119 59.946 C 323.734 60.236,324.291 60.167,323.734 59.869 C 323.542 59.767,323.187 59.647,322.945 59.603 C 322.129 59.455,321.053 58.588,320.373 57.531 C 319.650 56.405,319.500 54.883,319.500 48.646 C 319.500 43.768,319.477 43.333,319.208 43.189 C 318.935 43.042,318.919 43.227,318.958 46.183 M148.667 50.833 C 148.987 51.009,149.438 51.153,149.667 51.153 C 150.053 51.153,150.041 51.130,149.500 50.833 C 149.179 50.658,148.729 50.514,148.500 50.514 C 148.114 50.514,148.126 50.537,148.667 50.833 M151.810 51.672 C 152.027 51.852,152.402 51.997,152.643 51.993 C 153.071 51.986,153.067 51.977,152.500 51.667 C 151.713 51.236,151.291 51.239,151.810 51.672 M153.667 52.107 C 153.667 52.247,154.580 52.990,154.875 53.090 C 155.458 53.288,155.269 54.813,154.579 55.484 C 153.931 56.114,153.929 56.361,154.576 55.937 C 155.776 55.150,155.936 53.596,154.906 52.731 C 154.321 52.240,153.667 51.910,153.667 52.107 M61.933 53.684 C 62.222 54.004,62.258 54.412,62.338 58.392 C 62.416 62.230,62.466 62.849,62.760 63.583 C 63.814 66.222,69.005 66.342,70.388 63.760 C 70.727 63.126,70.755 62.798,70.833 58.559 C 70.924 53.626,71.003 53.244,71.884 53.458 C 72.840 53.690,72.833 53.656,72.833 58.651 L 72.833 63.250 72.322 64.333 C 70.233 68.767,62.366 68.620,60.811 64.118 C 60.551 63.365,60.510 62.637,60.505 58.637 L 60.500 54.024 60.939 53.679 C 61.484 53.250,61.540 53.251,61.933 53.684 M142.822 53.763 C 142.526 54.120,142.838 55.618,143.365 56.368 C 144.235 57.608,145.072 58.528,145.555 58.778 C 145.836 58.924,146.170 59.146,146.295 59.271 C 146.421 59.397,146.724 59.547,146.970 59.604 C 147.216 59.662,147.661 59.856,147.959 60.035 C 148.257 60.214,148.594 60.326,148.709 60.282 C 148.823 60.239,148.417 59.973,147.807 59.690 C 144.755 58.279,142.088 54.812,143.200 53.700 C 143.330 53.570,143.337 53.500,143.220 53.500 C 143.122 53.500,142.942 53.619,142.822 53.763 M266.024 55.648 C 265.632 55.897,266.068 55.982,266.502 55.741 C 266.869 55.538,266.878 55.511,266.583 55.508 C 266.400 55.507,266.148 55.570,266.024 55.648 M270.485 57.792 C 270.428 58.925,270.552 59.781,270.814 60.048 C 271.109 60.350,271.161 59.101,270.905 57.875 C 270.813 57.432,270.507 57.372,270.485 57.792 M296.523 59.028 C 296.498 59.880,296.615 60.333,296.861 60.333 C 296.948 60.333,296.960 60.240,296.888 60.125 C 296.815 60.010,296.709 59.542,296.651 59.083 L 296.547 58.250 296.523 59.028 " stroke="none" fill="#edac39" fill-rule="evenodd"></path><path id="path4" d="M134.583 29.667 C 134.519 29.771,134.876 29.833,135.541 29.833 C 139.805 29.833,139.699 35.382,135.432 35.541 C 134.477 35.576,134.356 35.610,134.723 35.741 C 134.967 35.827,135.167 35.958,135.167 36.032 C 135.167 36.584,137.666 35.768,138.458 34.958 L 139.083 34.317 139.083 32.751 C 139.083 31.012,138.673 30.285,137.380 29.730 C 136.762 29.465,134.736 29.419,134.583 29.667 M166.833 29.627 C 166.833 29.720,167.345 29.825,167.969 29.860 C 171.987 30.087,171.844 35.382,167.816 35.540 L 166.715 35.583 167.195 35.875 C 168.470 36.651,170.906 35.421,171.348 33.778 C 171.975 31.452,170.660 29.659,168.235 29.532 C 167.352 29.485,166.833 29.521,166.833 29.627 M308.417 31.333 C 308.475 31.428,309.304 31.500,310.332 31.500 C 311.329 31.500,312.337 31.573,312.572 31.663 L 313.000 31.825 313.000 45.823 C 313.000 59.492,312.992 59.826,312.678 59.994 C 312.500 60.089,311.492 60.167,310.437 60.167 C 309.339 60.167,308.476 60.238,308.417 60.333 C 308.227 60.640,312.929 60.548,313.238 60.238 C 313.472 60.004,313.500 58.468,313.500 45.833 C 313.500 33.198,313.472 31.663,313.238 31.429 C 312.929 31.119,308.227 31.026,308.417 31.333 M103.667 33.000 C 103.804 33.089,104.859 33.163,106.010 33.164 C 108.497 33.167,108.578 33.208,109.007 34.674 C 109.403 36.024,109.948 37.598,110.246 38.250 C 110.372 38.525,110.567 39.125,110.678 39.583 C 110.790 40.042,110.938 40.492,111.006 40.583 C 111.075 40.675,111.285 41.237,111.472 41.833 C 111.660 42.429,112.047 43.554,112.332 44.333 C 112.617 45.112,112.957 46.125,113.087 46.582 C 113.218 47.040,113.433 47.640,113.566 47.916 C 113.824 48.451,114.369 50.051,114.759 51.417 C 114.889 51.875,115.067 52.400,115.154 52.583 C 115.241 52.767,115.467 53.282,115.656 53.729 C 115.947 54.418,116.037 54.510,116.250 54.334 C 116.566 54.071,116.580 53.333,116.269 53.333 C 116.132 53.333,115.991 53.076,115.924 52.708 C 115.862 52.365,115.673 51.783,115.504 51.417 C 115.334 51.050,115.143 50.487,115.078 50.167 C 115.013 49.846,114.828 49.321,114.667 49.000 C 114.506 48.679,114.318 48.154,114.250 47.833 C 114.182 47.512,113.991 46.984,113.827 46.659 C 113.662 46.334,113.474 45.771,113.408 45.409 C 113.342 45.047,113.158 44.487,112.998 44.167 C 112.838 43.846,112.653 43.321,112.587 43.000 C 112.521 42.679,112.332 42.117,112.166 41.750 C 111.839 41.028,111.308 39.459,110.895 38.000 C 110.753 37.496,110.565 36.998,110.479 36.893 C 110.393 36.788,110.181 36.226,110.009 35.643 C 109.132 32.674,109.352 32.833,106.105 32.836 C 104.308 32.838,103.500 32.892,103.667 33.000 M124.083 33.000 C 124.017 33.108,124.791 33.168,126.282 33.169 C 127.548 33.171,128.674 33.230,128.786 33.301 C 129.020 33.449,128.733 34.723,128.271 35.583 C 128.123 35.858,128.001 36.233,128.000 36.417 C 127.999 36.600,127.862 36.975,127.695 37.250 C 127.528 37.525,127.298 38.124,127.184 38.581 C 127.069 39.038,126.900 39.503,126.809 39.613 C 126.717 39.724,126.501 40.250,126.329 40.782 C 125.841 42.293,125.337 43.703,125.090 44.250 C 124.965 44.525,124.774 45.087,124.665 45.500 C 124.556 45.913,124.402 46.330,124.322 46.428 C 124.242 46.526,124.028 47.051,123.848 47.595 C 123.278 49.309,122.824 50.566,122.587 51.083 C 122.462 51.358,122.307 51.808,122.243 52.083 C 122.180 52.358,121.992 52.883,121.827 53.250 C 121.662 53.617,121.414 54.254,121.276 54.667 C 120.670 56.477,120.311 57.445,120.101 57.833 C 119.978 58.063,119.786 58.637,119.676 59.109 C 119.425 60.179,119.484 60.161,116.042 60.164 C 114.349 60.166,113.333 60.229,113.333 60.333 C 113.333 60.438,114.472 60.500,116.417 60.500 C 119.721 60.500,120.167 60.385,120.167 59.533 C 120.167 59.368,120.239 59.161,120.328 59.072 C 120.474 58.926,120.731 58.247,121.585 55.750 C 121.741 55.292,122.002 54.617,122.164 54.250 C 122.326 53.883,122.514 53.321,122.581 53.000 C 122.649 52.679,122.797 52.304,122.912 52.167 C 123.026 52.029,123.207 51.556,123.315 51.115 C 123.422 50.675,123.657 50.038,123.838 49.701 C 124.019 49.364,124.167 48.963,124.167 48.811 C 124.167 48.658,124.353 48.132,124.582 47.642 C 124.810 47.151,124.997 46.596,124.998 46.407 C 124.999 46.218,125.111 45.918,125.247 45.740 C 125.383 45.562,125.573 45.117,125.669 44.750 C 125.765 44.383,125.985 43.746,126.159 43.333 C 126.332 42.921,126.586 42.246,126.723 41.833 C 127.275 40.171,127.681 39.058,127.907 38.583 C 128.038 38.308,128.257 37.746,128.393 37.333 C 128.874 35.883,129.354 34.578,129.614 34.011 C 130.078 33.005,129.648 32.833,126.658 32.833 C 125.190 32.833,124.145 32.901,124.083 33.000 M225.667 32.995 C 225.667 33.091,226.645 33.177,228.040 33.204 L 230.413 33.250 230.780 34.000 C 230.982 34.412,231.197 35.012,231.259 35.333 C 231.320 35.654,231.538 36.329,231.742 36.833 C 232.186 37.930,232.585 39.062,233.003 40.417 C 233.427 41.789,233.969 43.312,234.260 43.945 C 234.394 44.236,234.551 44.723,234.609 45.028 C 234.667 45.334,234.845 45.846,235.004 46.167 C 235.163 46.487,235.347 47.012,235.413 47.333 C 235.479 47.654,235.668 48.217,235.834 48.583 C 236.177 49.341,236.725 50.966,237.110 52.369 C 237.345 53.227,238.474 54.887,238.493 54.403 C 238.503 54.145,237.827 52.116,237.665 51.917 C 237.591 51.825,237.475 51.450,237.409 51.083 C 237.343 50.717,237.158 50.154,236.998 49.833 C 236.838 49.512,236.654 48.987,236.589 48.667 C 236.524 48.346,236.337 47.783,236.174 47.417 C 235.853 46.695,235.298 45.079,234.915 43.751 C 234.783 43.293,234.567 42.693,234.434 42.418 C 234.176 41.883,233.650 40.322,233.233 38.852 C 233.092 38.358,232.878 37.796,232.755 37.602 C 232.633 37.408,232.480 36.987,232.415 36.667 C 232.350 36.346,232.159 35.746,231.990 35.333 C 231.821 34.921,231.605 34.277,231.509 33.902 C 231.388 33.430,231.205 33.162,230.910 33.027 C 230.381 32.786,225.667 32.758,225.667 32.995 M246.428 32.995 C 246.517 33.084,247.562 33.177,248.751 33.203 C 251.165 33.255,251.318 33.346,250.783 34.410 C 250.643 34.689,250.400 35.292,250.243 35.750 C 250.086 36.208,249.736 37.183,249.465 37.917 C 249.195 38.650,248.858 39.587,248.716 40.000 C 248.575 40.412,248.325 41.050,248.161 41.417 C 247.997 41.783,247.814 42.320,247.755 42.609 C 247.696 42.898,247.502 43.420,247.324 43.769 C 247.146 44.118,247.000 44.520,247.000 44.663 C 247.000 44.805,246.862 45.183,246.693 45.502 C 246.524 45.822,246.302 46.421,246.199 46.833 C 246.096 47.246,245.859 47.880,245.673 48.244 C 245.486 48.607,245.333 49.020,245.333 49.163 C 245.333 49.305,245.195 49.683,245.027 50.002 C 244.858 50.322,244.627 50.957,244.514 51.414 C 244.401 51.872,244.241 52.327,244.159 52.426 C 244.077 52.525,243.862 53.051,243.683 53.595 C 243.077 55.425,242.662 56.580,242.429 57.083 C 242.302 57.358,242.101 57.921,241.982 58.333 C 241.864 58.746,241.644 59.308,241.494 59.583 L 241.222 60.083 238.490 60.129 C 236.987 60.155,235.685 60.248,235.596 60.338 C 235.383 60.551,241.160 60.557,241.720 60.345 C 242.030 60.227,242.176 59.989,242.329 59.350 C 242.440 58.888,242.674 58.229,242.849 57.886 C 243.024 57.543,243.169 57.147,243.172 57.006 C 243.175 56.865,243.362 56.375,243.587 55.917 C 243.812 55.458,244.000 54.933,244.004 54.750 C 244.007 54.567,244.195 54.042,244.420 53.583 C 244.646 53.125,244.831 52.636,244.832 52.498 C 244.833 52.359,244.973 51.984,245.144 51.664 C 245.316 51.345,245.510 50.821,245.577 50.500 C 245.644 50.179,245.836 49.617,246.003 49.250 C 246.170 48.883,246.418 48.246,246.555 47.833 C 246.692 47.421,247.003 46.558,247.247 45.917 C 247.849 44.335,248.417 42.754,248.745 41.750 C 248.895 41.292,249.160 40.617,249.333 40.250 C 249.507 39.883,249.735 39.246,249.841 38.833 C 249.946 38.421,250.093 38.008,250.167 37.917 C 250.241 37.825,250.426 37.320,250.579 36.795 C 250.731 36.269,250.917 35.801,250.993 35.755 C 251.380 35.515,251.724 33.288,251.409 33.057 C 251.038 32.786,246.158 32.725,246.428 32.995 M319.917 33.167 C 319.976 33.262,320.835 33.333,321.927 33.333 C 324.517 33.333,324.500 33.315,324.500 36.046 C 324.500 38.848,324.488 38.833,326.770 38.833 C 329.207 38.833,329.167 38.799,329.167 40.905 C 329.167 42.956,329.315 42.833,326.832 42.833 C 325.388 42.833,324.969 42.888,324.754 43.103 C 324.381 43.476,324.437 54.607,324.814 55.060 C 325.225 55.554,326.490 56.000,327.484 56.000 C 329.030 56.000,329.167 56.182,329.167 58.248 C 329.167 60.332,329.355 60.207,326.282 60.164 C 323.806 60.130,323.538 60.152,324.250 60.333 C 325.261 60.591,329.227 60.522,329.630 60.241 C 330.084 59.922,330.180 57.087,329.770 56.104 L 329.539 55.553 327.964 55.449 C 324.859 55.245,324.973 55.506,325.035 48.739 C 325.092 42.587,324.829 43.173,327.532 43.169 C 329.982 43.166,330.000 43.149,330.000 40.833 C 330.000 38.551,329.951 38.500,327.748 38.500 C 325.012 38.500,325.006 38.493,325.002 35.408 C 325.001 34.071,324.933 33.333,324.800 33.200 C 324.545 32.945,319.760 32.912,319.917 33.167 M150.750 37.999 C 150.292 38.067,149.558 38.245,149.119 38.395 C 148.681 38.544,148.118 38.669,147.869 38.672 C 147.538 38.675,147.483 38.714,147.667 38.816 C 148.031 39.018,150.128 38.751,150.464 38.460 C 150.756 38.207,152.328 38.268,152.781 38.550 C 152.890 38.618,153.602 38.751,154.363 38.847 C 155.124 38.942,155.860 39.119,155.998 39.240 C 156.137 39.361,156.512 39.591,156.833 39.752 C 157.416 40.043,157.621 40.197,158.250 40.810 C 159.053 41.593,160.167 43.879,160.167 44.743 C 160.167 45.272,159.921 45.333,157.820 45.333 C 156.628 45.333,156.000 45.395,156.000 45.513 C 156.000 45.812,160.262 45.645,160.568 45.333 C 160.895 45.001,160.509 42.859,160.007 42.221 C 159.820 41.983,159.667 41.704,159.667 41.601 C 159.667 40.922,156.816 38.883,155.513 38.631 C 155.002 38.531,154.506 38.391,154.411 38.318 C 154.227 38.177,152.253 37.823,151.833 37.855 C 151.696 37.866,151.208 37.931,150.750 37.999 M184.667 38.019 C 184.254 38.108,183.767 38.252,183.583 38.337 C 183.400 38.423,182.875 38.561,182.417 38.645 L 181.583 38.796 182.558 38.815 C 183.140 38.826,183.758 38.727,184.091 38.569 C 184.958 38.157,189.371 38.709,190.344 39.351 C 190.567 39.498,190.936 39.678,191.164 39.750 C 192.132 40.056,194.439 42.087,194.950 43.083 C 195.091 43.358,195.301 43.696,195.416 43.833 C 195.531 43.971,195.719 44.383,195.834 44.750 C 195.949 45.117,196.102 45.492,196.173 45.583 C 196.812 46.408,196.820 51.625,196.183 53.167 C 195.291 55.328,194.952 55.877,193.775 57.068 C 192.632 58.225,191.175 59.247,190.417 59.425 C 190.142 59.490,189.657 59.699,189.341 59.890 C 188.811 60.209,188.514 60.236,185.632 60.232 C 182.169 60.226,181.522 60.400,184.292 60.592 C 186.647 60.755,189.556 60.491,190.430 60.035 C 190.789 59.848,191.271 59.611,191.500 59.508 C 193.940 58.418,196.320 55.522,196.916 52.917 C 197.042 52.367,197.230 51.629,197.334 51.277 C 197.887 49.411,196.457 42.833,195.498 42.833 C 195.420 42.833,195.313 42.702,195.262 42.542 C 195.157 42.218,194.317 41.308,193.531 40.667 C 193.250 40.438,192.832 40.088,192.601 39.890 C 192.370 39.692,191.958 39.481,191.686 39.421 C 191.413 39.361,191.104 39.208,190.999 39.082 C 190.894 38.955,190.382 38.768,189.862 38.666 C 189.342 38.563,188.654 38.381,188.333 38.260 C 187.521 37.953,185.564 37.824,184.667 38.019 M262.333 38.050 L 261.417 38.240 262.917 38.346 C 263.742 38.403,264.642 38.531,264.917 38.630 C 265.192 38.728,265.768 38.856,266.197 38.913 C 266.626 38.970,267.162 39.163,267.390 39.342 C 267.617 39.520,267.875 39.667,267.963 39.667 C 268.052 39.667,268.593 40.042,269.167 40.500 C 269.740 40.958,270.280 41.333,270.366 41.333 C 270.674 41.333,270.410 40.588,270.035 40.402 C 269.826 40.298,269.488 40.062,269.285 39.878 C 268.947 39.570,268.444 39.268,267.583 38.857 C 266.014 38.106,263.743 37.757,262.333 38.050 M211.468 38.254 C 211.409 38.313,210.999 38.465,210.556 38.593 C 209.789 38.814,209.848 38.820,211.759 38.729 C 214.112 38.617,216.204 38.869,216.868 39.344 C 217.117 39.521,217.387 39.667,217.470 39.667 C 218.156 39.667,220.202 42.074,220.682 43.446 C 221.314 45.253,221.340 45.655,221.295 52.917 L 221.250 60.083 218.868 60.130 C 215.763 60.190,215.851 60.500,218.973 60.500 C 220.772 60.500,221.338 60.445,221.630 60.241 L 222.000 59.981 221.999 53.199 C 221.999 45.552,221.880 44.279,221.008 42.555 C 220.449 41.452,218.756 39.601,218.131 39.410 C 217.921 39.346,217.626 39.185,217.474 39.052 C 216.841 38.497,211.884 37.839,211.468 38.254 M318.038 38.456 C 317.162 38.534,317.272 38.833,318.177 38.833 C 318.649 38.833,318.833 38.763,318.833 38.583 C 318.833 38.446,318.815 38.346,318.792 38.362 C 318.769 38.378,318.430 38.420,318.038 38.456 M133.500 38.667 C 133.637 38.756,134.622 38.829,135.688 38.831 C 137.117 38.833,137.675 38.893,137.814 39.060 C 137.951 39.225,137.991 42.144,137.960 49.685 L 137.917 60.083 135.722 60.167 C 134.515 60.212,133.465 60.312,133.390 60.388 C 133.139 60.639,138.253 60.442,138.558 60.188 C 139.029 59.796,138.974 39.307,138.500 38.833 C 138.197 38.530,137.946 38.500,135.708 38.503 C 134.060 38.504,133.332 38.558,133.500 38.667 M165.569 38.625 C 165.638 38.694,166.681 38.787,167.888 38.833 L 170.083 38.917 170.083 49.500 L 170.083 60.083 167.972 60.167 C 166.810 60.212,165.798 60.312,165.722 60.388 C 165.472 60.640,170.420 60.442,170.725 60.188 C 171.172 59.816,171.143 39.181,170.695 38.776 C 170.377 38.488,165.283 38.338,165.569 38.625 M201.750 38.667 C 201.808 38.761,202.637 38.833,203.666 38.833 C 206.008 38.833,206.333 38.952,206.333 39.809 C 206.333 40.587,206.618 40.903,207.042 40.593 C 207.382 40.345,207.424 40.149,207.125 40.208 C 206.993 40.235,206.897 40.007,206.863 39.585 C 206.833 39.220,206.730 38.826,206.634 38.710 C 206.414 38.446,201.587 38.402,201.750 38.667 M260.250 38.667 C 259.801 38.781,259.827 38.794,260.500 38.797 C 260.912 38.799,261.438 38.740,261.667 38.667 C 262.237 38.484,260.968 38.484,260.250 38.667 M271.166 38.708 C 271.166 38.867,271.695 38.905,273.389 38.866 C 275.147 38.827,275.652 38.865,275.807 39.052 C 275.953 39.228,275.992 41.920,275.960 49.685 L 275.917 60.083 273.535 60.130 C 270.430 60.190,270.517 60.500,273.639 60.500 C 275.439 60.500,276.005 60.445,276.296 60.241 L 276.667 59.981 276.667 49.605 C 276.667 37.102,277.056 38.500,273.577 38.500 C 271.760 38.500,271.167 38.551,271.166 38.708 M281.917 38.667 C 281.975 38.761,282.824 38.834,283.885 38.836 C 284.911 38.837,285.919 38.883,286.125 38.938 L 286.500 39.039 286.505 44.811 C 286.513 53.462,286.753 54.366,289.392 55.681 C 290.474 56.219,293.000 56.414,293.000 55.958 C 293.000 55.814,292.656 55.746,291.875 55.736 C 287.862 55.687,287.167 54.123,287.167 45.142 C 287.167 39.453,287.147 39.033,286.862 38.776 C 286.507 38.454,281.720 38.349,281.917 38.667 M297.500 38.667 C 297.637 38.756,298.524 38.829,299.469 38.831 C 302.130 38.835,301.833 37.497,301.833 49.473 C 301.833 57.257,301.785 59.815,301.633 59.967 C 301.502 60.098,300.799 60.168,299.592 60.169 C 298.579 60.171,297.637 60.244,297.500 60.333 C 297.332 60.442,298.030 60.496,299.625 60.497 C 303.052 60.501,302.667 61.891,302.667 49.537 C 302.667 37.120,303.038 38.499,299.699 38.503 C 298.056 38.504,297.332 38.558,297.500 38.667 M149.868 42.603 C 147.118 43.752,148.058 46.721,151.333 47.233 C 151.746 47.297,152.260 47.466,152.475 47.607 C 152.691 47.748,153.328 47.929,153.892 48.010 C 154.456 48.090,155.214 48.309,155.577 48.495 C 155.940 48.681,156.358 48.833,156.507 48.833 C 157.226 48.833,159.058 50.381,159.762 51.583 C 160.215 52.357,160.250 52.535,160.243 54.083 C 160.237 55.673,160.170 55.975,159.601 56.961 C 159.139 57.761,157.451 59.333,157.054 59.333 C 156.929 59.333,156.435 59.538,155.955 59.789 C 155.094 60.239,155.045 60.245,151.958 60.240 C 148.505 60.234,147.859 60.402,150.612 60.589 C 153.517 60.787,155.545 60.582,156.833 59.959 C 157.937 59.425,159.500 58.391,159.500 58.193 C 159.501 58.133,159.725 57.821,160.000 57.500 C 160.275 57.179,160.500 56.804,160.501 56.667 C 160.501 56.529,160.622 56.192,160.769 55.917 C 161.721 54.131,160.465 50.231,158.686 49.447 C 158.446 49.342,158.154 49.126,158.037 48.968 C 157.920 48.809,157.549 48.628,157.213 48.565 C 156.877 48.502,156.373 48.318,156.093 48.155 C 155.813 47.992,155.208 47.806,154.750 47.741 C 154.292 47.676,153.654 47.493,153.333 47.333 C 153.012 47.174,152.378 46.989,151.923 46.923 C 151.469 46.857,150.915 46.659,150.692 46.485 C 150.470 46.310,150.183 46.167,150.053 46.167 C 149.539 46.167,149.000 45.377,149.000 44.622 C 149.000 43.324,149.679 42.917,151.845 42.917 L 153.106 42.917 152.707 42.603 C 152.069 42.101,151.069 42.101,149.868 42.603 M183.731 43.044 C 183.537 43.157,183.080 43.414,182.715 43.615 C 179.400 45.440,178.979 51.908,181.991 54.726 C 182.447 55.152,182.917 55.500,183.037 55.500 C 183.157 55.500,183.541 55.653,183.890 55.840 C 184.733 56.292,186.860 56.259,186.928 55.794 C 186.962 55.561,186.910 55.537,186.663 55.669 C 185.779 56.142,182.000 54.730,182.000 53.927 C 182.000 53.842,181.848 53.609,181.661 53.411 C 181.293 53.019,180.498 50.299,180.503 49.446 C 180.508 48.667,181.268 45.905,181.575 45.553 C 183.268 43.611,184.109 43.167,186.090 43.167 C 187.001 43.167,187.482 43.106,187.417 43.000 C 187.266 42.757,184.159 42.794,183.731 43.044 M208.608 43.352 C 206.411 44.807,206.342 45.107,206.337 53.356 L 206.333 59.961 205.958 60.062 C 205.752 60.117,204.744 60.163,203.718 60.164 C 202.657 60.166,201.809 60.239,201.750 60.333 C 201.590 60.593,206.199 60.553,206.547 60.292 C 206.796 60.104,206.829 59.393,206.874 53.250 L 206.924 46.417 207.322 45.667 C 207.782 44.799,208.438 44.035,208.917 43.809 C 209.100 43.723,209.438 43.544,209.667 43.412 C 209.947 43.250,210.591 43.171,211.635 43.169 C 212.626 43.168,213.149 43.106,213.083 43.000 C 212.802 42.545,209.425 42.810,208.608 43.352 M262.398 43.342 C 258.177 45.527,257.608 51.873,261.368 54.845 C 261.824 55.205,262.284 55.503,262.390 55.506 C 262.496 55.509,262.883 55.656,263.250 55.833 C 263.942 56.168,265.407 56.273,265.809 56.018 C 266.093 55.838,265.798 55.627,265.450 55.760 C 264.269 56.214,261.209 54.308,260.239 52.514 C 258.806 49.866,260.218 44.452,262.490 43.884 C 262.725 43.825,263.142 43.640,263.417 43.472 C 263.788 43.246,264.252 43.168,265.218 43.167 C 266.043 43.167,266.482 43.106,266.417 43.000 C 266.157 42.579,263.422 42.812,262.398 43.342 M317.417 43.000 C 317.354 43.102,317.609 43.167,318.073 43.167 C 318.491 43.167,318.833 43.092,318.833 43.000 C 318.833 42.908,318.538 42.833,318.177 42.833 C 317.815 42.833,317.473 42.908,317.417 43.000 M147.167 50.398 C 147.167 50.535,148.186 50.604,148.267 50.472 C 148.314 50.396,148.086 50.333,147.760 50.333 C 147.434 50.333,147.167 50.362,147.167 50.398 M149.863 51.147 C 149.724 51.234,149.963 51.322,150.520 51.388 C 151.310 51.482,151.677 51.438,151.486 51.273 C 151.312 51.122,150.060 51.025,149.863 51.147 M152.667 52.064 C 152.667 52.100,152.892 52.162,153.167 52.202 C 153.442 52.243,153.667 52.214,153.667 52.138 C 153.667 52.062,153.442 52.000,153.167 52.000 C 152.892 52.000,152.667 52.029,152.667 52.064 M143.250 53.500 C 143.309 53.596,144.213 53.668,145.385 53.669 C 147.661 53.672,147.640 53.665,148.284 54.611 C 149.310 56.117,150.701 56.662,152.875 56.411 C 154.432 56.231,154.131 56.034,152.209 55.973 C 150.352 55.915,149.000 55.312,149.000 54.543 C 149.000 54.413,148.781 54.088,148.513 53.821 L 148.026 53.333 145.586 53.333 C 144.003 53.333,143.183 53.392,143.250 53.500 M266.667 55.333 C 266.323 55.443,266.309 55.469,266.583 55.481 C 266.767 55.489,267.029 55.422,267.167 55.333 C 267.459 55.145,267.256 55.145,266.667 55.333 M269.994 57.637 C 269.761 57.791,269.386 58.089,269.160 58.299 C 268.935 58.510,268.632 58.790,268.487 58.923 C 268.343 59.055,267.968 59.250,267.654 59.355 C 267.340 59.461,266.956 59.657,266.801 59.791 C 266.415 60.124,264.039 60.379,262.417 60.262 C 261.683 60.209,260.979 60.233,260.852 60.316 C 260.510 60.537,263.577 60.731,265.219 60.593 C 266.544 60.481,268.448 59.786,268.917 59.244 C 269.008 59.138,269.361 58.886,269.700 58.684 C 270.039 58.482,270.368 58.152,270.431 57.950 C 270.493 57.748,270.629 57.528,270.731 57.461 C 270.852 57.381,270.829 57.342,270.667 57.348 C 270.529 57.353,270.226 57.483,269.994 57.637 M295.632 58.121 C 295.059 58.710,294.526 59.167,294.410 59.167 C 294.360 59.167,293.828 59.396,293.228 59.677 C 292.167 60.173,292.068 60.188,289.712 60.188 C 287.931 60.188,287.337 60.237,287.473 60.373 C 287.788 60.688,292.657 60.610,293.259 60.281 C 293.529 60.133,294.009 59.890,294.325 59.740 C 294.641 59.590,295.204 59.219,295.575 58.915 C 295.946 58.610,296.325 58.355,296.417 58.347 C 296.683 58.325,296.609 57.759,296.333 57.706 C 296.195 57.680,295.879 57.866,295.632 58.121 " stroke="none" fill="#5fa4da" fill-rule="evenodd"></path></g></svg>