<?xml version="1.0" standalone="no"?>
<!DOCTYPE svg PUBLIC "-//W3C//DTD SVG 20010904//EN"
 "http://www.w3.org/TR/2001/REC-SVG-20010904/DTD/svg10.dtd">
<svg version="1.0" xmlns="http://www.w3.org/2000/svg"
 width="500.000000pt" height="500.000000pt" viewBox="0 0 500.000000 500.000000"
 preserveAspectRatio="xMidYMid meet">

<g transform="translate(0.000000,500.000000) scale(0.100000,-0.100000)"
fill="#000000" stroke="none">
<path d="M2395 3859 c-237 -22 -445 -141 -472 -271 -3 -17 -16 -31 -35 -39
-40 -16 -92 -69 -117 -116 -22 -45 -41 -136 -41 -204 0 -55 31 -224 53 -284
12 -36 18 -40 51 -43 25 -2 44 2 56 13 22 20 100 195 140 313 15 46 30 86 33
89 3 3 21 -7 40 -21 51 -39 174 -93 244 -106 103 -20 267 -8 408 30 161 44
188 47 214 21 11 -11 25 -39 31 -63 32 -123 73 -241 91 -259 15 -15 31 -19 61
-17 l42 3 21 72 c32 105 49 225 42 301 -11 108 -34 159 -103 228 -38 38 -65
74 -69 93 -8 39 -84 124 -140 157 -139 81 -352 121 -550 103z"/>
<path d="M2163 2826 c-22 -19 -28 -32 -28 -64 0 -57 34 -92 89 -92 46 0 55 5
79 40 26 37 21 77 -12 111 -38 37 -88 39 -128 5z"/>
<path d="M2696 2824 c-46 -47 -32 -124 28 -149 55 -23 99 -4 123 53 11 27 11
37 -1 66 -26 62 -102 77 -150 30z"/>
<path d="M1998 1810 c-80 -10 -92 -22 -85 -85 3 -32 2 -43 -3 -30 -5 11 -9 32
-9 48 -1 15 -3 27 -6 27 -16 0 -55 -26 -55 -37 0 -7 -4 -13 -9 -13 -5 0 -10
-43 -10 -96 0 -54 -3 -100 -7 -103 -3 -3 -4 45 -2 108 l3 114 -75 -6 c-231
-18 -426 -165 -527 -397 -18 -41 -33 -82 -33 -91 0 -23 171 -171 293 -252 153
-103 390 -214 348 -163 -8 9 -11 76 -8 222 l2 209 3 -213 c2 -178 4 -214 17
-218 8 -4 13 -10 10 -14 -8 -13 69 -39 220 -76 264 -64 557 -69 821 -13 100
20 143 37 69 26 -31 -5 -36 -4 -22 4 11 6 33 9 50 6 38 -6 196 43 313 98 139
64 327 191 463 313 l55 49 -13 44 c-7 24 -31 78 -52 120 -109 210 -312 349
-510 349 -55 0 -124 21 -170 53 -18 12 -55 19 -123 24 l-96 6 0 -67 c0 -81
-27 -141 -92 -203 -82 -78 -179 -110 -300 -99 -85 8 -163 42 -223 97 -64 59
-87 108 -93 197 l-5 72 -41 -1 c-22 -1 -67 -5 -98 -9z m-59 -182 c6 -18 7 -28
2 -23 -10 12 -25 55 -18 55 3 0 10 -15 16 -32z m40 -77 c8 -14 7 -20 -2 -24
-8 -3 -14 4 -15 19 -2 29 4 31 17 5z m-148 -269 c-8 -12 -10 15 -11 95 0 149
14 178 18 35 1 -63 -2 -120 -7 -130z m179 218 c6 -11 9 -20 7 -20 -2 0 -12 9
-22 20 -10 11 -13 20 -7 20 6 0 16 -9 22 -20z m45 -49 c3 -5 2 -12 -3 -15 -5
-3 -9 1 -9 9 0 17 3 19 12 6z m781 -106 c-14 -14 -33 -25 -42 -25 -11 0 -5 8
17 24 45 32 56 32 25 1z m-661 5 c3 -5 1 -10 -4 -10 -6 0 -11 5 -11 10 0 6 2
10 4 10 3 0 8 -4 11 -10z m30 -20 c4 -6 -6 -10 -22 -10 -22 0 -25 2 -13 10 19
12 27 12 35 0z m65 -30 c12 -7 10 -9 -8 -7 -12 0 -22 5 -22 9 0 11 12 10 30
-2z m490 0 c0 -5 -9 -10 -21 -10 -11 0 -29 -5 -40 -10 -10 -6 -19 -8 -19 -5 0
6 59 34 73 35 4 0 7 -4 7 -10z m-367 -37 c-7 -2 -21 -2 -30 0 -10 3 -4 5 12 5
17 0 24 -2 18 -5z m247 0 c-8 -2 -22 -7 -30 -9 -24 -8 -210 -10 -202 -2 4 4
52 9 107 11 55 1 109 3 120 4 12 1 14 -1 5 -4z m454 -149 c3 -8 2 -12 -4 -9
-6 3 -10 10 -10 16 0 14 7 11 14 -7z m78 -286 c-6 -6 -13 -5 -17 3 -5 8 -4 10
3 5 9 -5 13 21 14 96 l2 103 3 -99 c2 -55 0 -103 -5 -108z m-1292 -8 c0 -5 -5
-10 -11 -10 -5 0 -7 5 -4 10 3 6 8 10 11 10 2 0 4 -4 4 -10z m1265 -6 c-34
-13 -106 -31 -99 -24 10 10 71 28 94 28 8 0 11 -1 5 -4z m-1135 -42 c3 -3 -8
-2 -25 2 -16 4 -34 12 -40 17 -5 5 6 4 25 -2 19 -7 37 -14 40 -17z m1007 13
c0 -8 -4 -15 -8 -15 -4 0 -9 7 -13 15 -3 9 0 15 8 15 7 0 13 -7 13 -15z m-874
-25 c14 0 18 -3 11 -10 -7 -7 -28 -7 -64 0 -69 13 -80 25 -16 16 27 -3 58 -6
69 -6z m57 -20 c13 -11 19 -20 14 -20 -12 1 -44 25 -44 34 0 10 5 7 30 -14z
m230 6 c0 -8 12 -17 28 -19 15 -2 7 -3 -18 -1 -43 3 -44 3 -25 -12 20 -16 19
-16 -5 -10 -14 3 -41 6 -60 7 -35 1 -35 1 -9 12 14 7 24 18 22 25 -3 8 7 12
31 12 25 0 36 -5 36 -14z m200 4 c0 -5 -16 -10 -36 -10 -21 0 -33 4 -29 10 3
6 19 10 36 10 16 0 29 -4 29 -10z m163 -10 c4 -16 0 -20 -19 -20 -23 0 -23 1
-6 19 9 11 18 20 18 20 1 1 4 -8 7 -19z m102 10 c3 -5 0 -10 -9 -10 -8 0 -22
-3 -32 -7 -16 -6 -17 -5 -4 10 17 19 36 22 45 7z m-175 -26 c0 -10 -12 -14
-42 -13 -24 1 -35 3 -25 6 9 2 17 9 17 14 0 6 5 7 10 4 6 -3 10 -2 10 4 0 6 7
8 15 5 8 -4 15 -12 15 -20z m-145 -14 c4 -6 -17 -9 -57 -8 l-63 1 50 7 c28 4
53 8 57 8 4 1 10 -2 13 -8z"/>
</g>
</svg>
