<?xml version="1.0" standalone="no"?>
<!DOCTYPE svg PUBLIC "-//W3C//DTD SVG 20010904//EN"
 "http://www.w3.org/TR/2001/REC-SVG-20010904/DTD/svg10.dtd">
<svg version="1.0" xmlns="http://www.w3.org/2000/svg"
 width="360.000000pt" height="360.000000pt" viewBox="0 0 360.000000 360.000000"
 preserveAspectRatio="xMidYMid meet">

<g transform="translate(0.000000,360.000000) scale(0.100000,-0.100000)"
fill="#000000" stroke="none">
<path d="M1569 3355 c-240 -39 -443 -117 -634 -243 -352 -234 -585 -578 -676
-1002 -20 -90 -23 -134 -23 -310 0 -176 3 -220 23 -310 136 -633 598 -1095
1231 -1231 90 -20 135 -23 310 -23 177 -1 220 3 310 22 633 138 1095 600 1231
1232 20 90 23 134 23 310 0 176 -3 220 -23 310 -136 631 -600 1096 -1226 1230
-131 28 -419 36 -546 15z m-521 -1075 c9 0 182 -165 384 -367 l368 -368 363
363 c262 262 371 365 395 371 57 17 118 -12 148 -71 19 -38 17 -67 -7 -108
-12 -19 -205 -218 -430 -442 -299 -297 -418 -408 -439 -413 -71 -16 -74 -13
-517 429 -370 369 -422 426 -428 459 -8 43 6 85 39 117 26 23 73 41 94 34 8
-2 21 -4 30 -4z"/>
</g>
</svg>
